<svg width="672" height="673" viewBox="0 0 672 673" fill="none" xmlns="http://www.w3.org/2000/svg">
<g clip-path="url(#clip0_2142_47786)">
<path d="M336.606 557.424C329.481 557.625 322.421 556.006 316.095 552.72L76.6951 414.482C71.3117 411.394 68.3867 407.085 68.3867 402.381C68.3867 396.726 72.6396 391.017 80.0508 386.726L312.74 252.33C326.665 244.287 347.803 243.353 359.88 250.391L599.298 388.629C604.682 391.717 607.607 396.008 607.607 400.73C607.607 406.385 603.354 412.094 595.943 416.367L363.254 550.781C355.08 555.224 345.908 557.51 336.606 557.424ZM316.544 551.948C328.387 558.77 349.131 557.908 362.805 550.009L595.512 415.595C602.69 411.484 606.727 406.062 606.727 400.73C606.727 396.349 603.928 392.328 598.868 389.401L359.45 251.163C347.624 244.341 326.88 245.203 313.206 253.102L80.4994 387.462C73.3215 391.574 69.284 396.995 69.284 402.327C69.284 406.708 72.0833 410.73 77.1437 413.656L316.544 551.948Z" fill="#6EE8FC"/>
<path style="mix-blend-mode:lighten" opacity="0.3" d="M276.977 382.579C386.29 382.579 474.907 331.394 474.907 268.254C474.907 205.114 386.29 153.929 276.977 153.929C167.663 153.929 79.0469 205.114 79.0469 268.254C79.0469 331.394 167.663 382.579 276.977 382.579Z" fill="url(#paint0_radial_2142_47786)"/>
<path style="mix-blend-mode:lighten" opacity="0.3" d="M490.766 590.565C600.08 590.565 688.696 539.38 688.696 476.24C688.696 413.1 600.08 361.915 490.766 361.915C381.452 361.915 292.836 413.1 292.836 476.24C292.836 539.38 381.452 590.565 490.766 590.565Z" fill="url(#paint1_radial_2142_47786)"/>
<path style="mix-blend-mode:lighten" opacity="0.3" d="M96.5405 460.01C180.592 460.01 248.729 420.657 248.729 372.112C248.729 323.568 180.592 284.214 96.5405 284.214C12.4889 284.214 -55.6484 323.568 -55.6484 372.112C-55.6484 420.657 12.4889 460.01 96.5405 460.01Z" fill="url(#paint2_radial_2142_47786)"/>
<path style="mix-blend-mode:lighten" d="M291.513 285.148C298.569 278.088 298.57 266.641 291.513 259.581C284.456 252.52 273.014 252.52 265.957 259.581C258.9 266.641 258.9 278.088 265.957 285.148C273.014 292.208 284.456 292.208 291.513 285.148Z" fill="url(#paint3_radial_2142_47786)"/>
<path d="M278.736 277.518C281.58 277.518 283.886 275.211 283.886 272.365C283.886 269.52 281.58 267.213 278.736 267.213C275.892 267.213 273.586 269.52 273.586 272.365C273.586 275.211 275.892 277.518 278.736 277.518Z" fill="#6EE8FC"/>
<path style="mix-blend-mode:lighten" d="M114.108 381.921C116.391 372.201 110.365 362.47 100.649 360.187C90.9339 357.903 81.2078 363.932 78.9255 373.652C76.6432 383.372 82.6689 393.103 92.3844 395.386C102.1 397.669 111.826 391.641 114.108 381.921Z" fill="url(#paint4_radial_2142_47786)"/>
<path d="M101.691 377.821C101.691 378.841 101.389 379.837 100.823 380.684C100.257 381.531 99.4527 382.192 98.5116 382.582C97.5706 382.972 96.535 383.074 95.536 382.875C94.537 382.676 93.6193 382.185 92.8991 381.465C92.1788 380.744 91.6883 379.826 91.4896 378.827C91.2909 377.827 91.3928 376.791 91.7826 375.85C92.1724 374.908 92.8326 374.103 93.6795 373.537C94.5264 372.971 95.5222 372.669 96.5408 372.669C97.9052 372.674 99.2124 373.218 100.177 374.183C101.142 375.149 101.686 376.456 101.691 377.821Z" fill="#6EE8FC"/>
<path style="mix-blend-mode:lighten" d="M504.794 488.672C511.851 481.612 511.851 470.165 504.794 463.105C497.737 456.045 486.295 456.045 479.239 463.105C472.182 470.165 472.182 481.612 479.239 488.672C486.295 495.732 497.737 495.732 504.794 488.672Z" fill="url(#paint5_radial_2142_47786)"/>
<path d="M492.006 481.051C494.85 481.051 497.156 478.745 497.156 475.899C497.156 473.053 494.85 470.746 492.006 470.746C489.161 470.746 486.855 473.053 486.855 475.899C486.855 478.745 489.161 481.051 492.006 481.051Z" fill="#6EE8FC"/>
<path style="mix-blend-mode:lighten" d="M543.059 460.277C545.352 450.56 539.336 440.823 529.623 438.529C519.91 436.235 510.178 442.254 507.885 451.971C505.593 461.689 511.608 471.426 521.321 473.72C531.035 476.013 540.767 469.995 543.059 460.277Z" fill="url(#paint6_radial_2142_47786)"/>
<path d="M525.49 461.303C528.334 461.303 530.64 458.996 530.64 456.15C530.64 453.305 528.334 450.998 525.49 450.998C522.646 450.998 520.34 453.305 520.34 456.15C520.34 458.996 522.646 461.303 525.49 461.303Z" fill="#6EE8FC"/>
<path style="mix-blend-mode:lighten" d="M576.544 440.814C578.836 431.097 572.821 421.36 563.108 419.066C553.395 416.773 543.662 422.791 541.37 432.509C539.077 442.226 545.093 451.963 554.806 454.257C564.519 456.55 574.251 450.532 576.544 440.814Z" fill="url(#paint7_radial_2142_47786)"/>
<path d="M564.144 436.69C564.144 437.709 563.842 438.705 563.276 439.552C562.71 440.4 561.906 441.06 560.965 441.45C560.024 441.84 558.988 441.942 557.989 441.743C556.99 441.544 556.072 441.054 555.352 440.333C554.632 439.612 554.141 438.694 553.943 437.695C553.744 436.695 553.846 435.659 554.236 434.718C554.626 433.776 555.286 432.972 556.133 432.406C556.98 431.839 557.975 431.537 558.994 431.537C559.671 431.535 560.342 431.666 560.968 431.925C561.593 432.183 562.162 432.562 562.641 433.041C563.12 433.52 563.499 434.089 563.757 434.715C564.015 435.341 564.146 436.012 564.144 436.69Z" fill="#6EE8FC"/>
<path opacity="0.5" d="M326.161 372.077L250.973 328.63C245.266 325.327 245.984 319.564 252.57 315.758L324.546 274.161C331.132 270.355 341.127 269.942 346.833 273.245L422.04 316.674C427.746 319.977 427.028 325.74 420.443 329.564L348.43 371.143C341.863 374.949 331.868 375.362 326.161 372.077Z" fill="#0B0244"/>
<path d="M435.496 278.272V262.653H395.39L347.962 235.185C341.627 231.594 330.573 231.989 323.27 236.208L277.619 262.653H237.476V279.08C237.297 281.557 238.679 283.945 241.711 285.705L325.011 333.819C331.345 337.409 342.399 337.014 349.702 332.795L429.449 286.728C433.702 284.304 435.801 281.144 435.496 278.272Z" fill="#312A91"/>
<path opacity="0.5" d="M435.496 278.272V262.653H395.39L347.962 235.185C341.627 231.594 330.573 231.989 323.27 236.208L277.619 262.653H237.476V279.08C237.297 281.557 238.679 283.945 241.711 285.705L325.011 333.819C331.345 337.409 342.399 337.014 349.702 332.795L429.449 286.728C433.702 284.304 435.801 281.144 435.496 278.272Z" fill="url(#paint8_linear_2142_47786)"/>
<path d="M347.963 235.185C344.426 233.363 340.467 232.52 336.496 232.743V336.26C341.126 336.198 345.672 335.009 349.739 332.795L429.485 286.728C433.702 284.304 435.73 281.145 435.497 278.2V262.653H395.391L347.963 235.185Z" fill="url(#paint9_linear_2142_47786)"/>
<path d="M325.046 317.374L241.747 269.295C235.431 265.705 236.22 259.242 243.542 254.933L323.288 208.883C330.591 204.646 341.645 204.198 347.98 207.86L431.279 255.956C437.596 259.547 436.806 266.01 429.485 270.229L349.667 316.35C342.489 320.587 331.381 321.036 325.046 317.374Z" fill="#312A91"/>
<path opacity="0.5" d="M325.046 317.374L241.747 269.295C235.431 265.705 236.22 259.242 243.542 254.933L323.288 208.883C330.591 204.646 341.645 204.198 347.98 207.86L431.279 255.956C437.596 259.547 436.806 266.01 429.485 270.229L349.667 316.35C342.489 320.587 331.381 321.036 325.046 317.374Z" fill="url(#paint10_linear_2142_47786)"/>
<path d="M327.273 306.746L260.16 267.985C255.064 265.041 255.71 259.888 261.596 256.495L325.838 219.386C331.724 215.975 340.642 215.616 345.738 218.56L412.851 257.321C417.948 260.265 417.302 265.418 411.416 268.811L347.174 305.92C341.288 309.331 332.37 309.69 327.273 306.746Z" fill="#5CFFF3"/>
<path d="M261.594 261.522L325.836 224.413C331.722 221.002 340.641 220.643 345.737 223.587L412.85 262.348C413.953 262.954 414.89 263.824 415.578 264.879C417.049 262.15 416.206 259.26 412.85 257.321L345.737 218.56C340.641 215.616 331.722 215.975 325.836 219.386L261.594 256.495C257.162 259.062 255.709 262.599 257.431 265.471C258.436 263.802 259.875 262.437 261.594 261.522Z" fill="#42E8E0"/>
<path opacity="0.5" d="M327.847 317.374L244.547 269.295C238.231 265.705 236.705 260.319 246.342 254.933L326.088 208.883C329.947 206.762 334.249 205.576 338.649 205.418C333.331 205.142 328.04 206.341 323.36 208.883L243.524 254.933C236.221 259.152 235.431 265.543 241.73 269.295L325.029 317.391C328.791 319.324 333.016 320.169 337.232 319.833C333.954 319.758 330.74 318.915 327.847 317.374Z" fill="url(#paint11_linear_2142_47786)"/>
<path opacity="0.5" d="M429.489 277.248L349.671 323.298C342.368 327.535 331.314 327.984 324.979 324.321L241.68 276.225C238.647 274.43 237.266 272.078 237.445 269.6V273.012C237.266 275.489 238.647 277.877 241.68 279.618L324.979 327.732C331.314 331.323 342.368 330.928 349.671 326.709L429.417 280.642C433.634 278.218 435.662 275.058 435.429 272.132V268.721C435.806 271.647 433.706 274.807 429.489 277.248Z" fill="url(#paint12_linear_2142_47786)"/>
<path d="M415.021 272.706C415.22 272.774 415.392 272.902 415.514 273.073C415.636 273.243 415.702 273.448 415.702 273.658C415.702 273.867 415.636 274.072 415.514 274.243C415.392 274.413 415.22 274.541 415.021 274.609C414.509 274.867 413.944 275.001 413.37 275.001C412.797 275.001 412.232 274.867 411.719 274.609C411.521 274.541 411.349 274.413 411.227 274.243C411.105 274.072 411.039 273.867 411.039 273.658C411.039 273.448 411.105 273.243 411.227 273.073C411.349 272.902 411.521 272.774 411.719 272.706C412.232 272.449 412.797 272.315 413.37 272.315C413.944 272.315 414.509 272.449 415.021 272.706Z" fill="#FCCC6B"/>
<path d="M420.154 269.744C420.353 269.812 420.525 269.94 420.647 270.111C420.769 270.281 420.835 270.486 420.835 270.696C420.835 270.906 420.769 271.11 420.647 271.281C420.525 271.451 420.353 271.579 420.154 271.647C419.642 271.905 419.076 272.039 418.503 272.039C417.93 272.039 417.365 271.905 416.852 271.647C416.654 271.579 416.482 271.451 416.359 271.281C416.237 271.11 416.172 270.906 416.172 270.696C416.172 270.486 416.237 270.281 416.359 270.111C416.482 269.94 416.654 269.812 416.852 269.744C417.365 269.487 417.93 269.353 418.503 269.353C419.076 269.353 419.642 269.487 420.154 269.744Z" fill="#FCCC6B"/>
<path d="M425.269 266.782C425.467 266.85 425.64 266.978 425.762 267.148C425.884 267.319 425.949 267.524 425.949 267.733C425.949 267.943 425.884 268.148 425.762 268.318C425.64 268.489 425.467 268.617 425.269 268.685C424.761 268.946 424.198 269.083 423.627 269.083C423.056 269.083 422.493 268.946 421.985 268.685C421.787 268.617 421.614 268.489 421.492 268.318C421.37 268.148 421.305 267.943 421.305 267.733C421.305 267.524 421.37 267.319 421.492 267.148C421.614 266.978 421.787 266.85 421.985 266.782C422.493 266.52 423.056 266.384 423.627 266.384C424.198 266.384 424.761 266.52 425.269 266.782Z" fill="#FCCC6B"/>
<path opacity="0.5" d="M189.441 451.142L114.235 407.713C108.528 404.41 109.246 398.737 115.832 394.841L187.826 353.244C194.429 349.438 204.407 349.025 210.131 352.328L285.337 395.757C291.044 399.06 290.326 404.823 283.722 408.629L211.728 450.226C205.125 454.032 195.147 454.445 189.441 451.142Z" fill="#0B0244"/>
<path d="M298.777 357.265V341.718H258.653L211.243 314.321C204.909 310.731 193.855 311.126 186.551 315.345L140.9 341.718H100.758V358.145C100.578 360.622 101.96 363.01 104.993 364.769L188.328 412.919C194.662 416.51 205.716 416.115 213.02 411.896L292.766 365.829C296.983 363.369 299.011 360.227 298.777 357.265Z" fill="#312A91"/>
<path opacity="0.5" d="M298.777 357.265V341.718H258.653L211.243 314.321C204.909 310.731 193.855 311.126 186.551 315.345L140.9 341.718H100.758V358.145C100.578 360.622 101.96 363.01 104.993 364.769L188.328 412.919C194.662 416.51 205.716 416.115 213.02 411.896L292.766 365.829C296.983 363.369 299.011 360.227 298.777 357.265Z" fill="url(#paint13_linear_2142_47786)"/>
<path d="M211.244 314.339C207.707 312.518 203.749 311.675 199.777 311.898V415.343C204.407 415.281 208.953 414.092 213.021 411.878L292.767 365.811C296.984 363.369 299.011 360.227 298.778 357.283V341.736H258.654L211.244 314.339Z" fill="url(#paint14_linear_2142_47786)"/>
<path d="M188.328 396.457L105.028 348.289C98.7119 344.698 99.5015 338.253 106.823 334.034L186.569 287.966C193.873 283.748 204.927 283.299 211.261 286.943L294.542 335.057C300.877 338.648 300.087 345.093 292.748 349.42L213.002 395.469C205.716 399.652 194.644 400.119 188.328 396.457Z" fill="#312A91"/>
<path opacity="0.5" d="M188.328 396.457L105.028 348.289C98.7119 344.698 99.5015 338.253 106.823 334.034L186.569 287.966C193.873 283.748 204.927 283.299 211.261 286.943L294.542 335.057C300.877 338.648 300.087 345.093 292.748 349.42L213.002 395.469C205.716 399.652 194.644 400.119 188.328 396.457Z" fill="url(#paint15_linear_2142_47786)"/>
<path d="M190.551 385.829L123.437 347.068C118.341 344.124 118.987 338.971 124.873 335.578L189.115 298.469C195.001 295.058 203.919 294.699 209.016 297.643L276.093 336.404C281.189 339.348 280.543 344.483 274.657 347.894L210.415 385.003C204.547 388.396 195.647 388.773 190.551 385.829Z" fill="#5CFFF3"/>
<path d="M124.876 340.605L189.118 303.496C195.004 300.085 203.923 299.726 209.019 302.67L276.096 341.431C277.202 342.026 278.14 342.89 278.824 343.944C280.295 341.233 279.452 338.343 276.096 336.404L208.983 297.643C203.887 294.699 194.968 295.058 189.083 298.469L124.841 335.578C120.408 338.127 118.955 341.682 120.677 344.554C121.692 342.881 123.144 341.515 124.876 340.605Z" fill="#42E8E0"/>
<path opacity="0.5" d="M191.128 396.457L107.829 348.289C101.494 344.698 99.9869 339.312 109.623 334.034L189.369 287.966C193.233 285.859 197.533 284.679 201.931 284.519C196.615 284.246 191.326 285.438 186.642 287.966L106.896 334.034C99.592 338.253 98.8025 344.644 105.101 348.289L188.4 396.403C192.161 398.337 196.389 399.177 200.603 398.826C197.302 398.793 194.056 397.981 191.128 396.457Z" fill="url(#paint16_linear_2142_47786)"/>
<path opacity="0.5" d="M292.765 356.331L213.019 402.381C205.715 406.6 194.661 407.067 188.327 403.404L105.028 355.29C101.995 353.495 100.613 351.161 100.793 348.683V352.077C100.613 354.554 101.995 356.942 105.028 358.701L188.327 406.815C194.661 410.406 205.715 410.011 213.019 405.792L292.765 359.725C296.982 357.301 299.01 354.141 298.777 351.197V347.804C299.01 350.73 296.982 353.89 292.765 356.331Z" fill="url(#paint17_linear_2142_47786)"/>
<path d="M278.303 351.879C278.501 351.947 278.673 352.075 278.795 352.246C278.917 352.416 278.983 352.621 278.983 352.831C278.983 353.041 278.917 353.245 278.795 353.416C278.673 353.586 278.501 353.714 278.303 353.782C277.79 354.04 277.225 354.174 276.652 354.174C276.078 354.174 275.513 354.04 275.001 353.782C274.802 353.714 274.63 353.586 274.508 353.416C274.386 353.245 274.32 353.041 274.32 352.831C274.32 352.621 274.386 352.416 274.508 352.246C274.63 352.075 274.802 351.947 275.001 351.879C275.513 351.622 276.078 351.488 276.652 351.488C277.225 351.488 277.79 351.622 278.303 351.879Z" fill="#FCCC6B"/>
<path d="M283.417 348.827C283.616 348.895 283.788 349.023 283.91 349.194C284.032 349.364 284.098 349.569 284.098 349.779C284.098 349.988 284.032 350.193 283.91 350.363C283.788 350.534 283.616 350.662 283.417 350.73C282.91 350.991 282.347 351.128 281.776 351.128C281.204 351.128 280.641 350.991 280.134 350.73C279.935 350.662 279.763 350.534 279.641 350.363C279.519 350.193 279.453 349.988 279.453 349.779C279.453 349.569 279.519 349.364 279.641 349.194C279.763 349.023 279.935 348.895 280.134 348.827C280.641 348.566 281.204 348.429 281.776 348.429C282.347 348.429 282.91 348.566 283.417 348.827Z" fill="#FCCC6B"/>
<path d="M288.55 345.865C288.749 345.933 288.921 346.061 289.043 346.232C289.165 346.403 289.231 346.607 289.231 346.817C289.231 347.027 289.165 347.231 289.043 347.402C288.921 347.572 288.749 347.701 288.55 347.768C288.042 348.03 287.479 348.166 286.908 348.166C286.337 348.166 285.774 348.03 285.266 347.768C285.068 347.701 284.896 347.572 284.774 347.402C284.652 347.231 284.586 347.027 284.586 346.817C284.586 346.607 284.652 346.403 284.774 346.232C284.896 346.061 285.068 345.933 285.266 345.865C285.774 345.604 286.337 345.468 286.908 345.468C287.479 345.468 288.042 345.604 288.55 345.865Z" fill="#FCCC6B"/>
<path opacity="0.5" d="M462.885 450.478L387.678 407.049C381.972 403.746 382.69 398.073 389.293 394.159L461.287 352.58C467.873 348.774 477.868 348.361 483.575 351.664L558.781 395.092C564.487 398.396 563.77 404.159 557.184 407.965L485.172 449.562C478.586 453.368 468.609 453.781 462.885 450.478Z" fill="#0B0244"/>
<path d="M572.183 356.619V341.107H532.112L484.684 313.711C478.35 310.121 467.296 310.515 459.993 314.734L414.27 341.107H374.199V357.534C374.02 360.012 375.401 362.4 378.452 364.159L461.733 412.273C468.068 415.864 479.122 415.469 486.425 411.25L566.171 365.182C570.388 362.651 572.452 359.563 572.183 356.619Z" fill="#312A91"/>
<path opacity="0.5" d="M572.183 356.619V341.107H532.112L484.684 313.711C478.35 310.121 467.296 310.515 459.993 314.734L414.27 341.107H374.199V357.534C374.02 360.012 375.401 362.4 378.452 364.159L461.733 412.273C468.068 415.864 479.122 415.469 486.425 411.25L566.171 365.182C570.388 362.651 572.452 359.563 572.183 356.619Z" fill="url(#paint18_linear_2142_47786)"/>
<path d="M484.685 313.675C481.148 311.854 477.191 311.005 473.219 311.215V414.715C477.849 414.653 482.394 413.463 486.462 411.25L566.208 365.182C570.425 362.741 572.453 359.599 572.22 356.655V341.107H532.113L484.685 313.675Z" fill="url(#paint19_linear_2142_47786)"/>
<path d="M461.768 395.792L378.487 347.678C372.153 344.088 372.942 337.643 380.282 333.424L460.028 287.356C467.331 283.137 478.385 282.67 484.72 286.333L568.019 334.447C574.335 338.037 573.546 344.483 566.224 348.702L486.478 394.769C479.157 398.988 468.103 399.455 461.768 395.792Z" fill="#312A91"/>
<path opacity="0.5" d="M461.768 395.792L378.487 347.678C372.153 344.088 372.942 337.643 380.282 333.424L460.028 287.356C467.331 283.137 478.385 282.67 484.72 286.333L568.019 334.447C574.335 338.037 573.546 344.483 566.224 348.702L486.478 394.769C479.157 398.988 468.103 399.455 461.768 395.792Z" fill="url(#paint20_linear_2142_47786)"/>
<path d="M463.996 385.164L396.883 346.494C391.786 343.549 392.432 338.397 398.318 335.004L462.56 297.877C468.464 294.484 477.365 294.107 482.461 297.051L549.574 335.722C554.67 338.666 554.024 343.801 548.139 347.212L483.897 384.321C478.011 387.786 469.092 388.109 463.996 385.164Z" fill="#5CFFF3"/>
<path d="M398.317 339.941L462.559 302.814C468.463 299.421 477.363 299.044 482.46 302.006L549.573 340.766C550.679 341.361 551.617 342.226 552.3 343.28C553.79 340.569 552.929 337.678 549.573 335.74L482.46 296.961C477.363 294.017 468.463 294.394 462.559 297.787L398.317 334.914C393.885 337.463 392.431 341.018 394.154 343.89C395.15 342.214 396.591 340.847 398.317 339.941Z" fill="#42E8E0"/>
<path opacity="0.5" d="M464.513 395.792L381.214 347.678C374.897 344.088 373.372 338.702 383.008 333.424L462.718 287.356C466.582 285.249 470.882 284.069 475.28 283.909C469.964 283.637 464.676 284.829 459.991 287.356L380.173 333.424C372.869 337.643 372.08 344.034 378.378 347.678L461.66 395.792C465.421 397.725 469.648 398.565 473.862 398.216C470.6 398.147 467.398 397.317 464.513 395.792Z" fill="url(#paint21_linear_2142_47786)"/>
<path opacity="0.5" d="M566.206 355.649L486.46 401.717C479.157 405.936 468.103 406.403 461.768 402.74L378.487 354.626C375.436 352.831 374.055 350.479 374.234 348.019V351.413C374.055 353.89 375.436 356.278 378.487 358.037L461.768 406.151C468.103 409.742 479.157 409.347 486.46 405.128L566.206 359.061C570.423 356.619 572.451 353.477 572.218 350.533V347.14C572.451 350.084 570.388 353.226 566.206 355.649Z" fill="url(#paint22_linear_2142_47786)"/>
<path d="M551.744 351.125C552.659 351.646 552.659 352.49 551.744 353.028C551.236 353.29 550.673 353.426 550.102 353.426C549.531 353.426 548.968 353.29 548.46 353.028C547.545 352.49 547.545 351.646 548.46 351.125C548.968 350.864 549.531 350.728 550.102 350.728C550.673 350.728 551.236 350.864 551.744 351.125Z" fill="#FCCC6B"/>
<path d="M556.877 348.163C557.075 348.231 557.248 348.359 557.37 348.53C557.492 348.7 557.557 348.905 557.557 349.115C557.557 349.324 557.492 349.529 557.37 349.7C557.248 349.87 557.075 349.998 556.877 350.066C556.364 350.324 555.799 350.458 555.226 350.458C554.653 350.458 554.087 350.324 553.575 350.066C553.376 349.998 553.204 349.87 553.082 349.7C552.96 349.529 552.895 349.324 552.895 349.115C552.895 348.905 552.96 348.7 553.082 348.53C553.204 348.359 553.376 348.231 553.575 348.163C554.085 347.899 554.651 347.761 555.226 347.761C555.8 347.761 556.366 347.899 556.877 348.163Z" fill="#FCCC6B"/>
<path d="M561.99 345.201C562.905 345.721 562.905 346.565 561.99 347.104C561.482 347.365 560.919 347.501 560.348 347.501C559.777 347.501 559.214 347.365 558.706 347.104C557.791 346.565 557.791 345.721 558.706 345.201C559.214 344.939 559.777 344.803 560.348 344.803C560.919 344.803 561.482 344.939 561.99 345.201Z" fill="#FCCC6B"/>
<path opacity="0.5" d="M329.264 297.356L276.614 266.962C272.63 264.646 273.025 260.606 277.745 257.985L328.133 228.829C332.763 226.154 339.744 225.867 343.745 228.183L396.323 258.524C400.307 260.822 399.804 264.861 395.193 267.5L344.804 296.602C340.246 299.385 333.265 299.672 329.264 297.356Z" fill="#0B0244"/>
<path opacity="0.5" d="M435.498 262.617C435.525 262.324 435.525 262.03 435.498 261.737V218.291L366.5 218.596L347.964 207.824C341.647 204.234 330.593 204.629 323.272 208.848L306.045 218.794L237.496 219.099V262.545C237.317 265.023 238.68 267.41 241.731 269.17L325.012 317.284C331.347 320.875 342.401 320.48 349.704 316.261L429.45 270.193C433.255 268.003 435.265 265.22 435.462 262.545L435.498 262.617Z" fill="#5CFFF3"/>
<path d="M435.496 218.327V202.762H395.39L347.962 175.383C341.627 171.793 330.573 172.17 323.27 176.406L277.619 202.762H237.476V219.207C237.297 221.684 238.679 224.072 241.711 225.813L325.011 273.927C331.345 277.518 342.399 277.123 349.702 272.904L429.449 226.854C433.702 224.413 435.801 221.253 435.496 218.327Z" fill="#312A91"/>
<path opacity="0.5" d="M435.496 218.327V202.762H395.39L347.962 175.383C341.627 171.793 330.573 172.17 323.27 176.406L277.619 202.762H237.476V219.207C237.297 221.684 238.679 224.072 241.711 225.813L325.011 273.927C331.345 277.518 342.399 277.123 349.702 272.904L429.449 226.854C433.702 224.413 435.801 221.253 435.496 218.327Z" fill="url(#paint23_linear_2142_47786)"/>
<path d="M347.963 175.383C344.428 173.555 340.469 172.706 336.496 172.923V276.476C341.111 276.356 345.629 275.125 349.667 272.886L429.414 226.836C433.631 224.395 435.658 221.235 435.425 218.309V202.743H395.391L347.963 175.383Z" fill="url(#paint24_linear_2142_47786)"/>
<path d="M325.046 257.5L241.747 209.386C235.431 205.795 236.22 199.35 243.542 195.113L323.27 149.01C330.573 144.791 341.627 144.324 347.962 147.987L431.261 196.101C437.578 199.691 436.788 206.136 429.467 210.355L349.667 256.477C342.489 260.696 331.381 261.145 325.046 257.5Z" fill="#312A91"/>
<path opacity="0.5" d="M325.046 257.5L241.747 209.386C235.431 205.795 236.22 199.35 243.542 195.113L323.27 149.01C330.573 144.791 341.627 144.324 347.962 147.987L431.261 196.101C437.578 199.691 436.788 206.136 429.467 210.355L349.667 256.477C342.489 260.696 331.381 261.145 325.046 257.5Z" fill="url(#paint25_linear_2142_47786)"/>
<path opacity="0.5" d="M327.847 257.5L244.547 209.386C238.231 205.796 236.705 200.41 246.342 195.113L326.07 149.01C329.93 146.895 334.232 145.714 338.631 145.563C333.29 145.258 327.97 146.452 323.271 149.01L243.524 195.06C236.221 199.297 235.431 205.67 241.73 209.332L325.029 257.446C328.796 259.364 333.019 260.202 337.232 259.87C333.961 259.823 330.747 259.011 327.847 257.5Z" fill="url(#paint26_linear_2142_47786)"/>
<path opacity="0.5" d="M429.489 217.357L349.671 263.425C342.368 267.644 331.314 268.092 324.979 264.448L241.68 216.334C238.647 214.539 237.266 212.187 237.445 209.709V213.12C237.266 215.598 238.647 217.985 241.68 219.745L324.979 267.841C331.314 271.432 342.368 271.055 349.671 266.818L429.489 220.822C433.706 218.38 435.734 215.221 435.501 212.294V208.883C435.806 211.846 433.706 214.916 429.489 217.357Z" fill="url(#paint27_linear_2142_47786)"/>
<path opacity="0.5" d="M192.545 376.439L139.895 346.027C135.893 343.729 136.306 339.689 141.025 337.05L191.414 307.948C196.044 305.273 203.024 304.986 207.026 307.302L259.658 337.696C263.659 340.012 263.247 344.052 258.545 346.673L208.138 375.793C203.527 378.468 196.546 378.809 192.545 376.439Z" fill="#0B0244"/>
<path opacity="0.5" d="M298.777 341.736C298.795 341.443 298.795 341.149 298.777 340.856V297.41L229.78 297.715L211.243 286.943C204.909 283.353 193.855 283.748 186.551 287.967L169.324 298.02L100.758 298.325V341.772C100.578 344.249 101.96 346.637 104.993 348.379L188.292 396.493C194.626 400.083 205.68 399.688 212.984 395.469L292.73 349.42C296.516 347.212 298.544 344.447 298.741 341.772L298.777 341.736Z" fill="#5CFFF3"/>
<path d="M298.777 297.41V281.863H258.653L211.243 254.466C204.909 250.876 193.855 251.271 186.551 255.49L140.9 281.863H100.758V298.308C100.578 300.767 101.96 303.155 104.993 304.914L188.292 353.028C194.626 356.619 205.68 356.224 212.984 352.005L292.73 305.938C296.983 303.496 299.011 300.336 298.777 297.41Z" fill="#312A91"/>
<path opacity="0.5" d="M298.777 297.41V281.863H258.653L211.243 254.466C204.909 250.876 193.855 251.271 186.551 255.49L140.9 281.863H100.758V298.308C100.578 300.767 101.96 303.155 104.993 304.914L188.292 353.028C194.626 356.619 205.68 356.224 212.984 352.005L292.73 305.938C296.983 303.496 299.011 300.336 298.777 297.41Z" fill="url(#paint28_linear_2142_47786)"/>
<path d="M211.244 254.448C207.707 252.627 203.749 251.784 199.777 252.006V355.47C204.407 355.408 208.953 354.218 213.021 352.005L292.767 305.937C296.984 303.514 299.011 300.354 298.778 297.428V281.862H258.654L211.244 254.448Z" fill="url(#paint29_linear_2142_47786)"/>
<path d="M188.328 336.583L105.028 288.469C98.7119 284.879 99.5015 278.416 106.823 274.107L186.569 228.057C193.873 223.838 204.927 223.372 211.261 227.034L294.542 275.13C300.877 278.721 300.087 285.184 292.748 289.403L213.02 335.542C205.716 339.779 194.644 340.228 188.328 336.583Z" fill="#312A91"/>
<path opacity="0.5" d="M188.328 336.583L105.028 288.469C98.7119 284.879 99.5015 278.416 106.823 274.107L186.569 228.057C193.873 223.838 204.927 223.372 211.261 227.034L294.542 275.13C300.877 278.721 300.087 285.184 292.748 289.403L213.02 335.542C205.716 339.779 194.644 340.228 188.328 336.583Z" fill="url(#paint30_linear_2142_47786)"/>
<path d="M190.551 325.937L123.437 287.248C118.341 284.304 118.987 279.151 124.873 275.758L189.115 238.649C195.001 235.238 203.919 234.879 209.016 237.824L276.093 276.476C281.189 279.421 280.543 284.573 274.657 287.966L210.415 325.075C204.547 328.54 195.647 328.881 190.551 325.937Z" fill="#5CFFF3"/>
<path d="M124.876 280.713L189.118 243.604C195.004 240.211 203.923 239.834 209.019 242.779L276.096 281.539C277.2 282.146 278.136 283.015 278.824 284.071C280.295 281.342 279.452 278.451 276.096 276.512L208.983 237.752C203.887 234.807 194.968 235.167 189.083 238.578L124.841 275.687C120.408 278.254 118.955 281.791 120.677 284.663C121.692 282.989 123.144 281.624 124.876 280.713Z" fill="#42E8E0"/>
<path opacity="0.5" d="M191.128 336.583L107.829 288.469C101.494 284.878 99.9869 279.492 109.623 274.107L189.369 228.057C193.228 225.936 197.53 224.749 201.931 224.592C196.613 224.315 191.321 225.514 186.642 228.057L106.896 274.107C99.592 278.326 98.8025 284.717 105.101 288.469L188.4 336.583C192.167 338.5 196.39 339.339 200.603 339.007C197.298 338.957 194.051 338.127 191.128 336.583Z" fill="url(#paint31_linear_2142_47786)"/>
<path opacity="0.5" d="M292.765 296.44L213.019 342.49C205.715 346.727 194.661 347.176 188.327 343.531L105.028 295.417C101.995 293.622 100.613 291.27 100.793 288.792V292.203C100.613 294.681 101.995 297.069 105.028 298.81L188.327 346.924C194.661 350.515 205.715 350.12 213.019 345.901L292.765 299.815C296.982 297.374 299.01 294.214 298.777 291.288V287.877C299.01 290.839 296.982 293.999 292.765 296.44Z" fill="url(#paint32_linear_2142_47786)"/>
<path d="M278.303 291.898C278.501 291.966 278.673 292.094 278.795 292.265C278.917 292.435 278.983 292.64 278.983 292.85C278.983 293.059 278.917 293.264 278.795 293.435C278.673 293.605 278.501 293.733 278.303 293.801C277.79 294.058 277.225 294.192 276.652 294.192C276.078 294.192 275.513 294.058 275.001 293.801C274.802 293.733 274.63 293.605 274.508 293.435C274.386 293.264 274.32 293.059 274.32 292.85C274.32 292.64 274.386 292.435 274.508 292.265C274.63 292.094 274.802 291.966 275.001 291.898C275.513 291.641 276.078 291.507 276.652 291.507C277.225 291.507 277.79 291.641 278.303 291.898Z" fill="#FCCC6B"/>
<path d="M283.417 288.936C283.616 289.004 283.788 289.132 283.91 289.303C284.032 289.473 284.098 289.678 284.098 289.888C284.098 290.097 284.032 290.302 283.91 290.473C283.788 290.643 283.616 290.771 283.417 290.839C282.91 291.101 282.347 291.237 281.776 291.237C281.204 291.237 280.641 291.101 280.134 290.839C279.935 290.771 279.763 290.643 279.641 290.473C279.519 290.302 279.453 290.097 279.453 289.888C279.453 289.678 279.519 289.473 279.641 289.303C279.763 289.132 279.935 289.004 280.134 288.936C280.641 288.675 281.204 288.538 281.776 288.538C282.347 288.538 282.91 288.675 283.417 288.936Z" fill="#FCCC6B"/>
<path d="M288.548 285.974C289.464 286.512 289.464 287.356 288.548 287.877C288.041 288.138 287.478 288.275 286.906 288.275C286.335 288.275 285.772 288.138 285.265 287.877C284.349 287.356 284.349 286.512 285.265 285.974C285.772 285.712 286.335 285.576 286.906 285.576C287.478 285.576 288.041 285.712 288.548 285.974Z" fill="#FCCC6B"/>
<path opacity="0.5" d="M465.986 375.775L413.354 345.362C409.353 343.046 409.855 339.025 414.467 336.386L464.874 307.284C469.485 304.609 476.466 304.322 480.468 306.638L533.117 337.032C537.119 339.348 536.616 343.387 531.987 346.009L481.598 375.218C476.968 377.785 469.988 378.091 465.986 375.775Z" fill="#0B0244"/>
<path opacity="0.5" d="M572.181 341.107C572.217 340.815 572.217 340.52 572.181 340.228V296.781L503.184 297.087L484.665 286.315C478.33 282.724 467.276 283.119 459.973 287.338L442.746 297.302L374.18 297.607V341.107C374 343.585 375.382 345.973 378.414 347.714L461.714 395.828C468.03 399.419 479.084 399.024 486.406 394.805L566.134 348.755C569.938 346.547 571.966 343.782 572.145 341.107H572.181Z" fill="#5CFFF3"/>
<path d="M572.183 296.728V281.18H532.112L484.684 253.784C478.35 250.193 467.296 250.588 459.993 254.807L414.27 281.18H374.199V297.607C374.02 300.085 375.401 302.473 378.452 304.232L461.733 352.346C468.068 355.937 479.122 355.542 486.425 351.323L566.207 305.201C570.388 302.832 572.452 299.672 572.183 296.728Z" fill="#312A91"/>
<path opacity="0.5" d="M572.183 296.728V281.18H532.112L484.684 253.784C478.35 250.193 467.296 250.588 459.993 254.807L414.27 281.18H374.199V297.607C374.02 300.085 375.401 302.473 378.452 304.232L461.733 352.346C468.068 355.937 479.122 355.542 486.425 351.323L566.207 305.201C570.388 302.832 572.452 299.672 572.183 296.728Z" fill="url(#paint33_linear_2142_47786)"/>
<path d="M484.685 253.784C481.149 251.961 477.19 251.118 473.219 251.342V354.787C477.849 354.725 482.394 353.536 486.462 351.323L566.208 305.201C570.425 302.778 572.453 299.618 572.22 296.674V281.126H532.113L484.685 253.784Z" fill="url(#paint34_linear_2142_47786)"/>
<path d="M461.768 335.901L378.487 287.805C372.153 284.214 372.942 277.751 380.282 273.532L460.028 227.465C467.331 223.246 478.385 222.797 484.72 226.441L568.019 274.556C574.335 278.146 573.546 284.609 566.224 288.828L486.478 334.878C479.157 339.097 468.103 339.563 461.768 335.901Z" fill="#312A91"/>
<path opacity="0.5" d="M461.768 335.901L378.487 287.805C372.153 284.214 372.942 277.751 380.282 273.532L460.028 227.465C467.331 223.246 478.385 222.797 484.72 226.441L568.019 274.556C574.335 278.146 573.546 284.609 566.224 288.828L486.478 334.878C479.157 339.097 468.103 339.563 461.768 335.901Z" fill="url(#paint35_linear_2142_47786)"/>
<path opacity="0.5" d="M464.513 335.901L381.214 287.805C374.897 284.214 373.372 278.828 383.008 273.532L462.718 227.465C466.582 225.357 470.882 224.177 475.28 224.018C469.964 223.746 464.676 224.938 459.991 227.465L380.173 273.532C372.869 277.751 372.08 284.142 378.378 287.805L461.66 335.901C465.421 337.834 469.648 338.673 473.862 338.325C470.599 338.263 467.396 337.433 464.513 335.901Z" fill="url(#paint36_linear_2142_47786)"/>
<path opacity="0.5" d="M566.206 295.776L486.46 341.826C479.157 346.045 468.103 346.511 461.768 342.849L378.487 294.753C375.436 292.957 374.055 290.606 374.234 288.128V291.539C374.055 293.999 375.436 296.386 378.487 298.146L461.768 346.26C468.103 349.851 479.157 349.456 486.46 345.237L566.206 299.169C570.423 296.746 572.451 293.586 572.218 290.659V287.248C572.451 290.175 570.388 293.334 566.206 295.776Z" fill="url(#paint37_linear_2142_47786)"/>
<path opacity="0.5" d="M326.161 529.614L250.973 486.114C245.266 482.829 245.984 477.138 252.57 473.242L324.546 431.663C331.132 427.839 341.127 427.426 346.833 430.729L422.04 474.175C427.746 477.479 427.028 483.242 420.443 487.048L348.43 528.645C341.863 532.451 331.868 532.864 326.161 529.614Z" fill="#0B0244"/>
<path d="M435.496 435.702V420.101H395.39L347.962 392.722C341.627 389.132 330.573 389.527 323.27 393.746L277.619 420.101H237.476V436.546C237.297 439.023 238.679 441.411 241.711 443.17L325.011 491.267C331.345 494.857 342.399 494.462 349.702 490.243L429.449 444.194C433.702 441.788 435.801 438.628 435.496 435.702Z" fill="#312A91"/>
<path opacity="0.5" d="M435.496 435.702V420.101H395.39L347.962 392.722C341.627 389.132 330.573 389.527 323.27 393.746L277.619 420.101H237.476V436.546C237.297 439.023 238.679 441.411 241.711 443.17L325.011 491.267C331.345 494.857 342.399 494.462 349.702 490.243L429.449 444.194C433.702 441.788 435.801 438.628 435.496 435.702Z" fill="url(#paint38_linear_2142_47786)"/>
<path d="M347.963 392.758C344.428 390.931 340.469 390.082 336.496 390.299V493.708C341.129 493.649 345.676 492.453 349.739 490.225L429.485 444.176C433.702 441.734 435.73 438.574 435.497 435.648V420.101H395.391L347.963 392.758Z" fill="url(#paint39_linear_2142_47786)"/>
<path d="M325.046 474.875L241.747 426.761C235.431 423.171 236.22 416.725 243.542 412.507L323.288 366.439C330.591 362.22 341.645 361.753 347.98 365.416L431.279 413.53C437.596 417.12 436.806 423.566 429.485 427.785L349.667 473.852C342.489 478.071 331.381 478.52 325.046 474.875Z" fill="#312A91"/>
<path opacity="0.5" d="M325.046 474.875L241.747 426.761C235.431 423.171 236.22 416.725 243.542 412.507L323.288 366.439C330.591 362.22 341.645 361.753 347.98 365.416L431.279 413.53C437.596 417.12 436.806 423.566 429.485 427.785L349.667 473.852C342.489 478.071 331.381 478.52 325.046 474.875Z" fill="url(#paint40_linear_2142_47786)"/>
<path d="M327.273 464.247L260.16 425.487C255.064 422.543 255.71 417.408 261.596 413.997L325.838 376.888C331.724 373.495 340.642 373.118 345.738 376.062L412.851 414.823C417.948 417.767 417.302 422.92 411.416 426.313L347.174 463.44C341.288 466.779 332.37 467.192 327.273 464.247Z" fill="#5CFFF3"/>
<path d="M261.594 419.005L325.836 381.897C331.722 378.503 340.641 378.126 345.737 381.071L412.85 419.831C413.953 420.438 414.89 421.307 415.578 422.363C417.049 419.652 416.206 416.743 412.85 414.804L345.737 376.044C340.641 373.1 331.722 373.477 325.836 376.87L261.594 413.979C257.162 416.546 255.709 420.101 257.431 422.955C258.436 421.286 259.875 419.921 261.594 419.005Z" fill="#42E8E0"/>
<path opacity="0.5" d="M327.847 474.876L244.547 426.761C238.231 423.171 236.706 417.785 246.342 412.507L326.088 366.439C329.948 364.324 334.25 363.143 338.649 362.992C333.334 362.718 328.045 363.911 323.36 366.439L243.614 412.507C236.311 416.726 235.521 423.099 241.82 426.761L325.119 474.876C328.886 476.793 333.108 477.632 337.321 477.299C334.016 477.249 330.77 476.419 327.847 474.876Z" fill="url(#paint41_linear_2142_47786)"/>
<path opacity="0.5" d="M429.489 434.732L349.671 480.8C342.368 485.019 331.314 485.468 324.979 481.823L241.68 433.709C238.647 431.914 237.266 429.562 237.445 427.084V430.495C237.266 432.973 238.647 435.361 241.68 437.12L324.979 485.234C331.314 488.825 342.368 488.43 349.671 484.193L429.417 438.143C433.634 435.702 435.662 432.56 435.429 429.616V426.205C435.806 429.077 433.706 432.309 429.489 434.732Z" fill="url(#paint42_linear_2142_47786)"/>
<path d="M415.025 430.19C415.94 430.729 415.94 431.573 415.025 432.093C414.515 432.358 413.949 432.496 413.374 432.496C412.8 432.496 412.234 432.358 411.723 432.093C411.525 432.026 411.353 431.898 411.231 431.727C411.109 431.556 411.043 431.352 411.043 431.142C411.043 430.932 411.109 430.728 411.231 430.557C411.353 430.386 411.525 430.258 411.723 430.19C412.236 429.933 412.801 429.799 413.374 429.799C413.948 429.799 414.513 429.933 415.025 430.19Z" fill="#FCCC6B"/>
<path d="M420.155 427.282C420.347 427.354 420.513 427.482 420.63 427.651C420.747 427.819 420.81 428.019 420.81 428.225C420.81 428.43 420.747 428.63 420.63 428.799C420.513 428.967 420.347 429.096 420.155 429.167C419.645 429.432 419.078 429.57 418.504 429.57C417.929 429.57 417.363 429.432 416.853 429.167C416.652 429.104 416.477 428.979 416.352 428.81C416.227 428.64 416.16 428.435 416.16 428.225C416.16 428.014 416.227 427.809 416.352 427.64C416.477 427.47 416.652 427.345 416.853 427.282C417.363 427.018 417.929 426.88 418.504 426.88C419.078 426.88 419.645 427.018 420.155 427.282Z" fill="#FCCC6B"/>
<path d="M425.27 424.284C425.442 424.363 425.587 424.489 425.689 424.648C425.791 424.808 425.846 424.993 425.846 425.182C425.846 425.371 425.791 425.556 425.689 425.715C425.587 425.874 425.442 426.001 425.27 426.079C424.762 426.341 424.199 426.477 423.628 426.477C423.057 426.477 422.494 426.341 421.986 426.079C421.814 426.001 421.669 425.874 421.567 425.715C421.464 425.556 421.41 425.371 421.41 425.182C421.41 424.993 421.464 424.808 421.567 424.648C421.669 424.489 421.814 424.363 421.986 424.284C422.494 424.023 423.057 423.886 423.628 423.886C424.199 423.886 424.762 424.023 425.27 424.284Z" fill="#FCCC6B"/>
<path opacity="0.5" d="M329.264 454.858L276.614 424.445C272.63 422.129 273.025 418.09 277.745 415.469L328.133 386.313C332.763 383.656 339.744 383.369 343.745 385.667L396.323 416.079C400.307 418.395 399.804 422.417 395.193 425.056L344.876 454.212C340.246 456.869 333.265 457.156 329.264 454.858Z" fill="#0B0244"/>
<path opacity="0.5" d="M435.496 420.101C435.514 419.808 435.514 419.514 435.496 419.221V375.775L366.499 376.08L347.962 365.308C341.627 361.718 330.573 362.113 323.27 366.332L306.043 376.278L237.476 376.583V420.101C237.297 422.578 238.679 424.966 241.711 426.726L325.011 474.84C331.345 478.43 342.399 478.035 349.702 473.816L429.449 427.749C433.235 425.559 435.263 422.776 435.46 420.101H435.496Z" fill="#5CFFF3"/>
<path d="M435.496 375.811V360.263H395.39L347.962 332.867C341.627 329.276 330.573 329.671 323.27 333.89L277.619 360.263H237.476V376.69C237.297 379.168 238.679 381.556 241.711 383.315L325.011 431.429C331.345 435.02 342.399 434.625 349.702 430.406L429.449 384.338C433.702 381.897 435.801 378.809 435.496 375.811Z" fill="#312A91"/>
<path opacity="0.5" d="M435.496 375.811V360.263H395.39L347.962 332.867C341.627 329.276 330.573 329.671 323.27 333.89L277.619 360.263H237.476V376.69C237.297 379.168 238.679 381.556 241.711 383.315L325.011 431.429C331.345 435.02 342.399 434.625 349.702 430.406L429.449 384.338C433.702 381.897 435.801 378.809 435.496 375.811Z" fill="url(#paint43_linear_2142_47786)"/>
<path d="M347.963 332.867C344.426 331.046 340.467 330.203 336.496 330.426V433.871C341.126 433.809 345.672 432.62 349.739 430.406L429.485 384.339C433.702 381.897 435.73 378.755 435.497 375.811V360.264H395.391L347.963 332.867Z" fill="url(#paint44_linear_2142_47786)"/>
<path d="M325.046 414.984L241.747 366.87C235.431 363.28 236.22 356.834 243.542 352.616L323.288 306.548C330.591 302.329 341.645 301.88 347.98 305.525L431.261 353.675C437.578 357.265 436.788 363.71 429.467 367.929L349.667 413.961C342.489 418.18 331.381 418.647 325.046 414.984Z" fill="#312A91"/>
<path opacity="0.5" d="M325.046 414.984L241.747 366.87C235.431 363.28 236.22 356.834 243.542 352.616L323.288 306.548C330.591 302.329 341.645 301.88 347.98 305.525L431.261 353.675C437.578 357.265 436.788 363.71 429.467 367.929L349.667 413.961C342.489 418.18 331.381 418.647 325.046 414.984Z" fill="url(#paint45_linear_2142_47786)"/>
<path opacity="0.5" d="M327.847 414.984L244.547 366.87C238.231 363.279 236.706 357.893 246.342 352.615L326.088 306.548C329.952 304.44 334.252 303.26 338.649 303.101C333.334 302.827 328.045 304.019 323.36 306.548L243.614 352.615C236.311 356.834 235.521 363.225 241.82 366.87L325.119 414.984C328.88 416.918 333.107 417.758 337.321 417.408C334.016 417.358 330.77 416.527 327.847 414.984Z" fill="url(#paint46_linear_2142_47786)"/>
<path opacity="0.5" d="M429.489 374.841L349.671 420.908C342.368 425.127 331.314 425.594 324.979 421.932L241.68 373.818C238.647 372.022 237.266 369.671 237.445 367.211V370.604C237.266 373.082 238.647 375.469 241.68 377.229L324.979 425.343C331.314 428.934 342.368 428.539 349.671 424.32L429.417 378.252C433.634 375.828 435.662 372.669 435.429 369.724V366.331C435.806 369.258 433.706 372.417 429.489 374.841Z" fill="url(#paint47_linear_2142_47786)"/>
<path opacity="0.2" d="M329.928 363.746C330.3 363.877 330.622 364.12 330.85 364.441C331.077 364.763 331.2 365.147 331.2 365.541C331.2 365.936 331.077 366.32 330.85 366.642C330.622 366.963 330.3 367.206 329.928 367.337C328.959 367.832 327.886 368.09 326.797 368.09C325.709 368.09 324.635 367.832 323.666 367.337C323.294 367.206 322.972 366.963 322.745 366.642C322.517 366.32 322.395 365.936 322.395 365.541C322.395 365.147 322.517 364.763 322.745 364.441C322.972 364.12 323.294 363.877 323.666 363.746C324.635 363.251 325.709 362.993 326.797 362.993C327.886 362.993 328.959 363.251 329.928 363.746Z" fill="#5CFFF3"/>
<path opacity="0.6" d="M339.636 358.109C340.007 358.24 340.329 358.483 340.557 358.804C340.784 359.126 340.907 359.51 340.907 359.904C340.907 360.298 340.784 360.683 340.557 361.004C340.329 361.326 340.007 361.569 339.636 361.699C338.666 362.194 337.593 362.452 336.504 362.452C335.416 362.452 334.343 362.194 333.373 361.699C333.001 361.569 332.679 361.326 332.452 361.004C332.224 360.683 332.102 360.298 332.102 359.904C332.102 359.51 332.224 359.126 332.452 358.804C332.679 358.483 333.001 358.24 333.373 358.109C334.343 357.614 335.416 357.356 336.504 357.356C337.593 357.356 338.666 357.614 339.636 358.109Z" fill="#5CFFF3"/>
<path d="M349.398 352.472C349.769 352.602 350.091 352.845 350.319 353.167C350.547 353.488 350.669 353.873 350.669 354.267C350.669 354.661 350.547 355.045 350.319 355.367C350.091 355.689 349.769 355.932 349.398 356.062C348.428 356.557 347.355 356.815 346.266 356.815C345.178 356.815 344.105 356.557 343.135 356.062C341.34 355.075 341.34 353.459 343.135 352.472C344.105 351.977 345.178 351.719 346.266 351.719C347.355 351.719 348.428 351.977 349.398 352.472Z" fill="#5CFFF3"/>
<path opacity="0.5" d="M335.96 403.171C333.097 403.253 330.261 402.598 327.724 401.268L266.138 365.703C265.15 365.238 264.306 364.516 263.694 363.613C263.081 362.71 262.723 361.658 262.656 360.569C262.656 358.181 264.451 355.811 267.447 354.07L326.414 319.959C331.977 316.727 340.446 316.368 345.292 319.187L406.878 354.77C407.865 355.23 408.709 355.948 409.322 356.849C409.935 357.75 410.293 358.799 410.359 359.886C410.359 362.274 408.564 364.644 405.568 366.403L346.602 400.514C343.339 402.294 339.676 403.209 335.96 403.171ZM328.352 400.173C332.838 402.776 340.752 402.435 345.973 399.419L404.94 365.308C407.578 363.782 409.103 361.807 409.103 359.922C409.03 359.056 408.727 358.224 408.225 357.514C407.724 356.804 407.042 356.241 406.25 355.883L344.663 320.318C340.159 317.715 332.264 318.056 327.042 321.072L268.076 355.183C265.438 356.709 263.912 358.773 263.912 360.569C263.985 361.435 264.288 362.266 264.79 362.976C265.292 363.687 265.974 364.25 266.766 364.608L328.352 400.173Z" fill="#0B0244"/>
<path opacity="0.5" d="M472.679 324.752C469.826 324.858 466.993 324.241 464.442 322.957L402.856 287.248C401.869 286.788 401.025 286.07 400.412 285.169C399.799 284.269 399.441 283.219 399.375 282.132C399.375 279.744 401.169 277.374 404.166 275.615L463.114 241.504C468.695 238.29 477.165 237.913 482.01 240.75L543.596 276.476C544.583 276.941 545.425 277.663 546.035 278.567C546.644 279.471 546.999 280.522 547.06 281.611C547.06 283.981 545.265 286.369 542.287 288.11L483.32 322.221C480.045 323.955 476.383 324.826 472.679 324.752ZM465.07 321.772C469.557 324.375 477.47 324.034 482.692 321.018L541.658 286.907C544.296 285.381 545.804 283.317 545.804 281.521C545.734 280.656 545.435 279.825 544.936 279.115C544.438 278.405 543.758 277.841 542.968 277.482L481.382 241.917C476.878 239.332 468.982 239.673 463.743 242.689L404.794 276.8C402.138 278.326 400.631 280.3 400.631 282.186C400.7 283.053 401.002 283.886 401.504 284.597C402.006 285.308 402.69 285.87 403.484 286.225L465.07 321.772Z" fill="#0B0244"/>
<path opacity="0.5" d="M335.962 245.957C333.05 246.041 330.166 245.379 327.581 244.036L265.995 208.435C264.967 207.944 264.091 207.185 263.459 206.236C262.827 205.288 262.464 204.187 262.406 203.049C262.406 200.571 264.201 198.112 267.323 196.299L326.289 162.188C331.942 158.938 340.519 158.597 345.454 161.434L407.094 197.106C408.125 197.594 409.003 198.353 409.635 199.301C410.268 200.25 410.63 201.353 410.683 202.492C410.683 204.97 408.889 207.429 405.766 209.243L346.8 243.353C343.468 245.132 339.737 246.028 335.962 245.957ZM328.479 242.474C332.911 245.023 340.699 244.682 345.849 241.72L404.815 207.609C407.363 206.137 408.835 204.234 408.835 202.42C408.761 201.603 408.471 200.819 407.995 200.151C407.519 199.482 406.874 198.952 406.125 198.614L344.539 163.085C340.107 160.536 332.319 160.859 327.169 163.839L268.202 197.95C265.654 199.422 264.183 201.325 264.183 203.139C264.258 203.956 264.549 204.738 265.025 205.407C265.501 206.075 266.145 206.606 266.892 206.945L328.479 242.474Z" fill="#0B0244"/>
<path d="M246.971 288.523L191.324 256.387L195.326 254.071L250.972 286.207L246.971 288.523Z" fill="#42E8E0"/>
<path d="M238.432 293.46L182.785 261.324L186.787 259.008L242.415 291.144L238.432 293.46Z" fill="#42E8E0"/>
<path d="M229.889 298.397L174.242 266.261L178.226 263.945L233.872 296.081L229.889 298.397Z" fill="#42E8E0"/>
<path d="M221.328 303.334L165.699 271.198L169.683 268.882L225.329 301.018L221.328 303.334Z" fill="#42E8E0"/>
<path d="M212.787 308.271L157.141 276.135L161.142 273.819L216.771 305.955L212.787 308.271Z" fill="#42E8E0"/>
<path d="M204.244 313.208L148.598 281.073L152.599 278.757L208.228 310.892L204.244 313.208Z" fill="#42E8E0"/>
<path opacity="0.2" d="M466.614 285.004C466.986 285.135 467.308 285.378 467.536 285.699C467.763 286.021 467.886 286.405 467.886 286.8C467.886 287.194 467.763 287.578 467.536 287.9C467.308 288.221 466.986 288.464 466.614 288.595C465.642 289.09 464.566 289.348 463.474 289.348C462.383 289.348 461.307 289.09 460.334 288.595C459.962 288.464 459.64 288.221 459.413 287.9C459.185 287.578 459.063 287.194 459.062 286.8C459.063 286.405 459.185 286.021 459.413 285.699C459.64 285.378 459.962 285.135 460.334 285.004C461.307 284.509 462.383 284.251 463.474 284.251C464.566 284.251 465.642 284.509 466.614 285.004Z" fill="#5CFFF3"/>
<path opacity="0.6" d="M476.358 279.367C476.73 279.498 477.052 279.741 477.279 280.062C477.507 280.384 477.629 280.768 477.629 281.162C477.629 281.556 477.507 281.941 477.279 282.262C477.052 282.584 476.73 282.827 476.358 282.958C475.388 283.453 474.315 283.711 473.227 283.711C472.138 283.711 471.065 283.453 470.095 282.958C469.724 282.827 469.402 282.584 469.174 282.262C468.947 281.941 468.824 281.556 468.824 281.162C468.824 280.768 468.947 280.384 469.174 280.062C469.402 279.741 469.724 279.498 470.095 279.367C471.065 278.872 472.138 278.614 473.227 278.614C474.315 278.614 475.388 278.872 476.358 279.367Z" fill="#5CFFF3"/>
<path d="M486.05 273.73C486.422 273.86 486.743 274.103 486.971 274.425C487.199 274.747 487.321 275.131 487.321 275.525C487.321 275.919 487.199 276.304 486.971 276.625C486.743 276.947 486.422 277.19 486.05 277.32C485.08 277.815 484.007 278.073 482.919 278.073C481.83 278.073 480.757 277.815 479.787 277.32C477.993 276.333 477.993 274.717 479.787 273.73C480.757 273.235 481.83 272.977 482.919 272.977C484.007 272.977 485.08 273.235 486.05 273.73Z" fill="#5CFFF3"/>
<path opacity="0.2" d="M329.929 206.586C330.301 206.716 330.623 206.959 330.851 207.281C331.078 207.602 331.201 207.987 331.201 208.381C331.201 208.775 331.078 209.159 330.851 209.481C330.623 209.803 330.301 210.045 329.929 210.176C328.957 210.663 327.885 210.916 326.798 210.916C325.711 210.916 324.639 210.663 323.667 210.176C323.303 210.038 322.99 209.792 322.769 209.471C322.548 209.151 322.43 208.77 322.43 208.381C322.43 207.991 322.548 207.611 322.769 207.291C322.99 206.97 323.303 206.724 323.667 206.586C324.636 206.091 325.709 205.833 326.798 205.833C327.887 205.833 328.96 206.091 329.929 206.586Z" fill="#5CFFF3"/>
<path opacity="0.6" d="M339.636 200.948C340 201.087 340.313 201.333 340.534 201.653C340.755 201.974 340.873 202.354 340.873 202.744C340.873 203.133 340.755 203.513 340.534 203.834C340.313 204.154 340 204.4 339.636 204.539C338.664 205.025 337.592 205.279 336.505 205.279C335.418 205.279 334.346 205.025 333.374 204.539C333.01 204.4 332.697 204.154 332.476 203.834C332.255 203.513 332.137 203.133 332.137 202.744C332.137 202.354 332.255 201.974 332.476 201.653C332.697 201.333 333.01 201.087 333.374 200.948C334.346 200.462 335.418 200.208 336.505 200.208C337.592 200.208 338.664 200.462 339.636 200.948Z" fill="#5CFFF3"/>
<path d="M349.401 195.311C349.765 195.449 350.078 195.695 350.299 196.016C350.52 196.336 350.638 196.717 350.638 197.106C350.638 197.495 350.52 197.876 350.299 198.196C350.078 198.517 349.765 198.763 349.401 198.901C348.431 199.396 347.358 199.654 346.27 199.654C345.181 199.654 344.108 199.396 343.138 198.901C342.767 198.771 342.445 198.528 342.217 198.206C341.989 197.885 341.867 197.5 341.867 197.106C341.867 196.712 341.989 196.328 342.217 196.006C342.445 195.684 342.767 195.441 343.138 195.311C344.111 194.824 345.183 194.571 346.27 194.571C347.357 194.571 348.429 194.824 349.401 195.311Z" fill="#5CFFF3"/>
<path style="mix-blend-mode:lighten" opacity="0.4" d="M279.451 280.498V45.0439H119.977V282.437C120.096 283.454 120.473 284.423 121.073 285.253C121.673 286.083 122.476 286.745 123.404 287.176L190.517 325.937C195.613 328.881 204.514 328.522 210.418 325.111L274.66 288.002C278.392 285.866 280.025 283.047 279.451 280.498Z" fill="url(#paint48_linear_2142_47786)"/>
<path d="M472.393 328.361C469.207 328.458 466.05 327.735 463.224 326.26L356.973 264.879C355.925 264.397 355.025 263.643 354.366 262.696C353.707 261.749 353.312 260.644 353.223 259.493C353.223 256.944 355.125 254.358 358.462 252.437L461.734 192.798C467.943 189.207 477.382 188.812 482.783 191.936L589.034 253.138C590.093 253.629 591 254.397 591.66 255.36C592.32 256.324 592.709 257.448 592.784 258.613C592.784 261.181 590.882 263.748 587.544 265.669L484.255 325.399C480.615 327.375 476.534 328.394 472.393 328.361ZM473.614 190.374C469.578 190.333 465.599 191.328 462.057 193.264L358.785 252.922C355.663 254.718 353.869 257.087 353.869 259.403C353.947 260.455 354.307 261.467 354.91 262.332C355.513 263.197 356.337 263.885 357.296 264.322L463.547 325.704C468.769 328.72 477.902 328.325 483.95 324.842L587.221 265.184C590.344 263.389 592.138 261.019 592.138 258.685C592.057 257.636 591.696 256.629 591.093 255.767C590.49 254.905 589.668 254.22 588.711 253.784L482.46 192.403C479.741 190.954 476.694 190.231 473.614 190.302V190.374Z" fill="#6EE8FC"/>
<path style="mix-blend-mode:lighten" opacity="0.3" d="M445.924 250.642C494.446 250.642 533.781 227.927 533.781 199.907C533.781 171.886 494.446 149.171 445.924 149.171C397.401 149.171 358.066 171.886 358.066 199.907C358.066 227.927 397.401 250.642 445.924 250.642Z" fill="url(#paint49_radial_2142_47786)"/>
<path style="mix-blend-mode:lighten" opacity="0.3" d="M540.818 342.957C589.34 342.957 628.675 320.242 628.675 292.221C628.675 264.201 589.34 241.486 540.818 241.486C492.296 241.486 452.961 264.201 452.961 292.221C452.961 320.242 492.296 342.957 540.818 342.957Z" fill="url(#paint50_radial_2142_47786)"/>
<path style="mix-blend-mode:lighten" opacity="0.3" d="M365.837 285.004C403.14 285.004 433.381 267.538 433.381 245.992C433.381 224.447 403.14 206.98 365.837 206.98C328.533 206.98 298.293 224.447 298.293 245.992C298.293 267.538 328.533 285.004 365.837 285.004Z" fill="url(#paint51_radial_2142_47786)"/>
<path style="mix-blend-mode:lighten" d="M446.695 214.323C453.652 214.323 459.292 208.681 459.292 201.72C459.292 194.76 453.652 189.117 446.695 189.117C439.738 189.117 434.098 194.76 434.098 201.72C434.098 208.681 439.738 214.323 446.695 214.323Z" fill="url(#paint52_radial_2142_47786)"/>
<path d="M450.283 201.72C450.283 202.43 450.073 203.125 449.678 203.715C449.284 204.306 448.724 204.766 448.068 205.038C447.412 205.309 446.69 205.38 445.994 205.242C445.298 205.103 444.659 204.761 444.157 204.259C443.655 203.757 443.313 203.117 443.174 202.421C443.036 201.724 443.107 201.002 443.379 200.346C443.65 199.69 444.11 199.129 444.701 198.735C445.291 198.34 445.985 198.13 446.694 198.13C447.646 198.13 448.559 198.508 449.232 199.181C449.905 199.855 450.283 200.768 450.283 201.72Z" fill="#6EE8FC"/>
<path style="mix-blend-mode:lighten" d="M378.38 248.524C378.38 251.009 377.644 253.439 376.263 255.506C374.883 257.572 372.921 259.183 370.626 260.134C368.331 261.085 365.805 261.334 363.369 260.849C360.932 260.364 358.694 259.168 356.937 257.41C355.18 255.652 353.984 253.413 353.499 250.975C353.014 248.538 353.263 246.011 354.214 243.714C355.165 241.418 356.775 239.455 358.84 238.074C360.906 236.694 363.335 235.957 365.819 235.957C369.151 235.957 372.346 237.281 374.701 239.637C377.057 241.994 378.38 245.191 378.38 248.524Z" fill="url(#paint53_radial_2142_47786)"/>
<path d="M369.408 248.524C369.408 249.234 369.198 249.928 368.803 250.518C368.409 251.109 367.849 251.569 367.193 251.841C366.537 252.113 365.815 252.184 365.119 252.045C364.423 251.907 363.784 251.565 363.282 251.063C362.78 250.56 362.438 249.921 362.299 249.224C362.161 248.528 362.232 247.806 362.504 247.15C362.775 246.493 363.235 245.933 363.825 245.538C364.416 245.144 365.11 244.933 365.819 244.933C366.771 244.933 367.684 245.311 368.357 245.985C369.03 246.658 369.408 247.571 369.408 248.524Z" fill="#6EE8FC"/>
<path style="mix-blend-mode:lighten" d="M545.462 297.015C545.462 299.5 544.726 301.93 543.345 303.997C541.965 306.063 540.003 307.674 537.708 308.625C535.413 309.576 532.887 309.825 530.451 309.34C528.014 308.856 525.776 307.659 524.019 305.901C522.262 304.144 521.066 301.904 520.581 299.467C520.097 297.029 520.345 294.502 521.296 292.206C522.247 289.909 523.857 287.947 525.922 286.566C527.988 285.185 530.417 284.448 532.901 284.448C536.233 284.448 539.428 285.772 541.783 288.129C544.139 290.485 545.462 293.682 545.462 297.015Z" fill="url(#paint54_radial_2142_47786)"/>
<path d="M536.475 297.015C536.475 297.725 536.264 298.419 535.87 299.01C535.476 299.6 534.915 300.06 534.259 300.332C533.603 300.604 532.882 300.675 532.186 300.536C531.489 300.398 530.85 300.056 530.348 299.554C529.846 299.052 529.504 298.412 529.366 297.715C529.227 297.019 529.298 296.297 529.57 295.641C529.842 294.985 530.302 294.424 530.892 294.029C531.482 293.635 532.176 293.424 532.886 293.424C533.838 293.424 534.751 293.803 535.424 294.476C536.097 295.149 536.475 296.063 536.475 297.015Z" fill="#6EE8FC"/>
<path style="mix-blend-mode:lighten" d="M568.81 283.245C568.81 285.731 568.073 288.16 566.693 290.227C565.313 292.294 563.351 293.904 561.056 294.856C558.76 295.807 556.235 296.056 553.798 295.571C551.362 295.086 549.123 293.889 547.367 292.131C545.61 290.374 544.414 288.135 543.929 285.697C543.444 283.259 543.693 280.732 544.644 278.436C545.594 276.139 547.204 274.177 549.27 272.796C551.336 271.415 553.764 270.678 556.249 270.678C559.58 270.678 562.775 272.002 565.131 274.359C567.487 276.716 568.81 279.912 568.81 283.245Z" fill="url(#paint55_radial_2142_47786)"/>
<path d="M559.818 283.245C559.818 283.955 559.608 284.649 559.214 285.24C558.819 285.83 558.259 286.29 557.603 286.562C556.947 286.834 556.226 286.905 555.529 286.767C554.833 286.628 554.194 286.286 553.692 285.784C553.19 285.282 552.848 284.642 552.71 283.945C552.571 283.249 552.642 282.527 552.914 281.871C553.185 281.215 553.645 280.654 554.236 280.259C554.826 279.865 555.52 279.654 556.23 279.654C557.181 279.654 558.094 280.033 558.767 280.706C559.44 281.379 559.818 282.293 559.818 283.245Z" fill="#6EE8FC"/>
<path style="mix-blend-mode:lighten" d="M579.558 282.311C586.515 282.311 592.155 276.669 592.155 269.708C592.155 262.748 586.515 257.105 579.558 257.105C572.601 257.105 566.961 262.748 566.961 269.708C566.961 276.669 572.601 282.311 579.558 282.311Z" fill="url(#paint56_radial_2142_47786)"/>
<path d="M583.147 269.708C583.147 270.418 582.936 271.113 582.542 271.703C582.147 272.294 581.587 272.754 580.931 273.026C580.275 273.297 579.554 273.368 578.858 273.23C578.161 273.091 577.522 272.749 577.02 272.247C576.518 271.745 576.176 271.105 576.038 270.409C575.899 269.712 575.97 268.99 576.242 268.334C576.514 267.678 576.974 267.117 577.564 266.723C578.154 266.328 578.848 266.118 579.558 266.118C580.509 266.118 581.422 266.496 582.095 267.169C582.769 267.843 583.147 268.756 583.147 269.708Z" fill="#6EE8FC"/>
</g>
<defs>
<radialGradient id="paint0_radial_2142_47786" cx="0" cy="0" r="1" gradientUnits="userSpaceOnUse" gradientTransform="translate(267.516 268.263) rotate(29.898) scale(162.185 140.167)">
<stop stop-color="#42E8E0"/>
<stop offset="0.02" stop-color="#3FD8D7"/>
<stop offset="0.1" stop-color="#36A9BA"/>
<stop offset="0.18" stop-color="#2E7FA0"/>
<stop offset="0.26" stop-color="#275C8B"/>
<stop offset="0.35" stop-color="#223F79"/>
<stop offset="0.44" stop-color="#1D296C"/>
<stop offset="0.54" stop-color="#1A1962"/>
<stop offset="0.66" stop-color="#19105D"/>
<stop offset="0.82" stop-color="#180D5B"/>
</radialGradient>
<radialGradient id="paint1_radial_2142_47786" cx="0" cy="0" r="1" gradientUnits="userSpaceOnUse" gradientTransform="translate(482.3 476.249) rotate(29.898) scale(162.185 140.167)">
<stop stop-color="#42E8E0"/>
<stop offset="0.02" stop-color="#3FD8D7"/>
<stop offset="0.1" stop-color="#36A9BA"/>
<stop offset="0.18" stop-color="#2E7FA0"/>
<stop offset="0.26" stop-color="#275C8B"/>
<stop offset="0.35" stop-color="#223F79"/>
<stop offset="0.44" stop-color="#1D296C"/>
<stop offset="0.54" stop-color="#1A1962"/>
<stop offset="0.66" stop-color="#19105D"/>
<stop offset="0.82" stop-color="#180D5B"/>
</radialGradient>
<radialGradient id="paint2_radial_2142_47786" cx="0" cy="0" r="1" gradientUnits="userSpaceOnUse" gradientTransform="translate(86.2438 372.112) rotate(29.898) scale(124.709 107.779)">
<stop stop-color="#42E8E0"/>
<stop offset="0.02" stop-color="#3FD8D7"/>
<stop offset="0.1" stop-color="#36A9BA"/>
<stop offset="0.18" stop-color="#2E7FA0"/>
<stop offset="0.26" stop-color="#275C8B"/>
<stop offset="0.35" stop-color="#223F79"/>
<stop offset="0.44" stop-color="#1D296C"/>
<stop offset="0.54" stop-color="#1A1962"/>
<stop offset="0.66" stop-color="#19105D"/>
<stop offset="0.82" stop-color="#180D5B"/>
</radialGradient>
<radialGradient id="paint3_radial_2142_47786" cx="0" cy="0" r="1" gradientUnits="userSpaceOnUse" gradientTransform="translate(278.737 272.365) scale(18.0703 18.0787)">
<stop stop-color="#42E8E0"/>
<stop offset="0.02" stop-color="#3FD8D7"/>
<stop offset="0.1" stop-color="#36A9BA"/>
<stop offset="0.18" stop-color="#2E7FA0"/>
<stop offset="0.26" stop-color="#275C8B"/>
<stop offset="0.35" stop-color="#223F79"/>
<stop offset="0.44" stop-color="#1D296C"/>
<stop offset="0.54" stop-color="#1A1962"/>
<stop offset="0.66" stop-color="#19105D"/>
<stop offset="0.82" stop-color="#180D5B"/>
</radialGradient>
<radialGradient id="paint4_radial_2142_47786" cx="0" cy="0" r="1" gradientUnits="userSpaceOnUse" gradientTransform="translate(96.4787 377.833) scale(18.0703 18.0787)">
<stop stop-color="#42E8E0"/>
<stop offset="0.02" stop-color="#3FD8D7"/>
<stop offset="0.1" stop-color="#36A9BA"/>
<stop offset="0.18" stop-color="#2E7FA0"/>
<stop offset="0.26" stop-color="#275C8B"/>
<stop offset="0.35" stop-color="#223F79"/>
<stop offset="0.44" stop-color="#1D296C"/>
<stop offset="0.54" stop-color="#1A1962"/>
<stop offset="0.66" stop-color="#19105D"/>
<stop offset="0.82" stop-color="#180D5B"/>
</radialGradient>
<radialGradient id="paint5_radial_2142_47786" cx="0" cy="0" r="1" gradientUnits="userSpaceOnUse" gradientTransform="translate(492.005 475.888) scale(18.0703 18.0787)">
<stop stop-color="#42E8E0"/>
<stop offset="0.02" stop-color="#3FD8D7"/>
<stop offset="0.1" stop-color="#36A9BA"/>
<stop offset="0.18" stop-color="#2E7FA0"/>
<stop offset="0.26" stop-color="#275C8B"/>
<stop offset="0.35" stop-color="#223F79"/>
<stop offset="0.44" stop-color="#1D296C"/>
<stop offset="0.54" stop-color="#1A1962"/>
<stop offset="0.66" stop-color="#19105D"/>
<stop offset="0.82" stop-color="#180D5B"/>
</radialGradient>
<radialGradient id="paint6_radial_2142_47786" cx="0" cy="0" r="1" gradientUnits="userSpaceOnUse" gradientTransform="translate(525.432 456.172) scale(18.0703 18.0787)">
<stop stop-color="#42E8E0"/>
<stop offset="0.02" stop-color="#3FD8D7"/>
<stop offset="0.1" stop-color="#36A9BA"/>
<stop offset="0.18" stop-color="#2E7FA0"/>
<stop offset="0.26" stop-color="#275C8B"/>
<stop offset="0.35" stop-color="#223F79"/>
<stop offset="0.44" stop-color="#1D296C"/>
<stop offset="0.54" stop-color="#1A1962"/>
<stop offset="0.66" stop-color="#19105D"/>
<stop offset="0.82" stop-color="#180D5B"/>
</radialGradient>
<radialGradient id="paint7_radial_2142_47786" cx="0" cy="0" r="1" gradientUnits="userSpaceOnUse" gradientTransform="translate(558.938 436.699) scale(18.0703 18.0787)">
<stop stop-color="#42E8E0"/>
<stop offset="0.02" stop-color="#3FD8D7"/>
<stop offset="0.1" stop-color="#36A9BA"/>
<stop offset="0.18" stop-color="#2E7FA0"/>
<stop offset="0.26" stop-color="#275C8B"/>
<stop offset="0.35" stop-color="#223F79"/>
<stop offset="0.44" stop-color="#1D296C"/>
<stop offset="0.54" stop-color="#1A1962"/>
<stop offset="0.66" stop-color="#19105D"/>
<stop offset="0.82" stop-color="#180D5B"/>
</radialGradient>
<linearGradient id="paint8_linear_2142_47786" x1="193.709" y1="284.538" x2="391.747" y2="284.538" gradientUnits="userSpaceOnUse">
<stop stop-color="#42E8E0"/>
<stop offset="0.1" stop-color="#3CCACE"/>
<stop offset="0.34" stop-color="#2F87A5"/>
<stop offset="0.56" stop-color="#255385"/>
<stop offset="0.75" stop-color="#1E2D6E"/>
<stop offset="0.91" stop-color="#1A1660"/>
<stop offset="1" stop-color="#180D5B"/>
</linearGradient>
<linearGradient id="paint9_linear_2142_47786" x1="336.496" y1="284.538" x2="435.515" y2="284.538" gradientUnits="userSpaceOnUse">
<stop stop-color="#2B237C"/>
<stop offset="1" stop-color="#180D5B"/>
</linearGradient>
<linearGradient id="paint10_linear_2142_47786" x1="237.476" y1="262.653" x2="435.532" y2="262.653" gradientUnits="userSpaceOnUse">
<stop stop-color="#42E8E0"/>
<stop offset="0.1" stop-color="#3CCACE"/>
<stop offset="0.34" stop-color="#2F87A5"/>
<stop offset="0.56" stop-color="#255385"/>
<stop offset="0.75" stop-color="#1E2D6E"/>
<stop offset="0.91" stop-color="#1A1660"/>
<stop offset="1" stop-color="#180D5B"/>
</linearGradient>
<linearGradient id="paint11_linear_2142_47786" x1="237.477" y1="262.653" x2="338.559" y2="262.653" gradientUnits="userSpaceOnUse">
<stop stop-color="#42E8E0"/>
<stop offset="0.1" stop-color="#3CCACE"/>
<stop offset="0.34" stop-color="#2F87A5"/>
<stop offset="0.56" stop-color="#255385"/>
<stop offset="0.75" stop-color="#1E2D6E"/>
<stop offset="0.91" stop-color="#1A1660"/>
<stop offset="1" stop-color="#180D5B"/>
</linearGradient>
<linearGradient id="paint12_linear_2142_47786" x1="264.416" y1="320.3" x2="430.235" y2="211.988" gradientUnits="userSpaceOnUse">
<stop stop-color="#42E8E0"/>
<stop offset="0.1" stop-color="#3CCACE"/>
<stop offset="0.34" stop-color="#2F87A5"/>
<stop offset="0.56" stop-color="#255385"/>
<stop offset="0.75" stop-color="#1E2D6E"/>
<stop offset="0.91" stop-color="#1A1660"/>
<stop offset="1" stop-color="#180D5B"/>
</linearGradient>
<linearGradient id="paint13_linear_2142_47786" x1="56.9905" y1="363.62" x2="255.01" y2="363.62" gradientUnits="userSpaceOnUse">
<stop stop-color="#42E8E0"/>
<stop offset="0.1" stop-color="#3CCACE"/>
<stop offset="0.34" stop-color="#2F87A5"/>
<stop offset="0.56" stop-color="#255385"/>
<stop offset="0.75" stop-color="#1E2D6E"/>
<stop offset="0.91" stop-color="#1A1660"/>
<stop offset="1" stop-color="#180D5B"/>
</linearGradient>
<linearGradient id="paint14_linear_2142_47786" x1="199.777" y1="363.62" x2="298.796" y2="363.62" gradientUnits="userSpaceOnUse">
<stop stop-color="#2B237C"/>
<stop offset="1" stop-color="#180D5B"/>
</linearGradient>
<linearGradient id="paint15_linear_2142_47786" x1="100.758" y1="341.736" x2="298.813" y2="341.736" gradientUnits="userSpaceOnUse">
<stop stop-color="#42E8E0"/>
<stop offset="0.1" stop-color="#3CCACE"/>
<stop offset="0.34" stop-color="#2F87A5"/>
<stop offset="0.56" stop-color="#255385"/>
<stop offset="0.75" stop-color="#1E2D6E"/>
<stop offset="0.91" stop-color="#1A1660"/>
<stop offset="1" stop-color="#180D5B"/>
</linearGradient>
<linearGradient id="paint16_linear_2142_47786" x1="100.758" y1="341.736" x2="201.841" y2="341.736" gradientUnits="userSpaceOnUse">
<stop stop-color="#42E8E0"/>
<stop offset="0.1" stop-color="#3CCACE"/>
<stop offset="0.34" stop-color="#2F87A5"/>
<stop offset="0.56" stop-color="#255385"/>
<stop offset="0.75" stop-color="#1E2D6E"/>
<stop offset="0.91" stop-color="#1A1660"/>
<stop offset="1" stop-color="#180D5B"/>
</linearGradient>
<linearGradient id="paint17_linear_2142_47786" x1="127.692" y1="399.383" x2="293.511" y2="291.053" gradientUnits="userSpaceOnUse">
<stop stop-color="#42E8E0"/>
<stop offset="0.1" stop-color="#3CCACE"/>
<stop offset="0.34" stop-color="#2F87A5"/>
<stop offset="0.56" stop-color="#255385"/>
<stop offset="0.75" stop-color="#1E2D6E"/>
<stop offset="0.91" stop-color="#1A1660"/>
<stop offset="1" stop-color="#180D5B"/>
</linearGradient>
<linearGradient id="paint18_linear_2142_47786" x1="330.432" y1="362.956" x2="528.47" y2="362.956" gradientUnits="userSpaceOnUse">
<stop stop-color="#42E8E0"/>
<stop offset="0.1" stop-color="#3CCACE"/>
<stop offset="0.34" stop-color="#2F87A5"/>
<stop offset="0.56" stop-color="#255385"/>
<stop offset="0.75" stop-color="#1E2D6E"/>
<stop offset="0.91" stop-color="#1A1660"/>
<stop offset="1" stop-color="#180D5B"/>
</linearGradient>
<linearGradient id="paint19_linear_2142_47786" x1="473.219" y1="362.938" x2="572.238" y2="362.938" gradientUnits="userSpaceOnUse">
<stop stop-color="#2B237C"/>
<stop offset="1" stop-color="#180D5B"/>
</linearGradient>
<linearGradient id="paint20_linear_2142_47786" x1="374.198" y1="341.072" x2="572.254" y2="341.072" gradientUnits="userSpaceOnUse">
<stop stop-color="#42E8E0"/>
<stop offset="0.1" stop-color="#3CCACE"/>
<stop offset="0.34" stop-color="#2F87A5"/>
<stop offset="0.56" stop-color="#255385"/>
<stop offset="0.75" stop-color="#1E2D6E"/>
<stop offset="0.91" stop-color="#1A1660"/>
<stop offset="1" stop-color="#180D5B"/>
</linearGradient>
<linearGradient id="paint21_linear_2142_47786" x1="374.197" y1="341.072" x2="475.28" y2="341.072" gradientUnits="userSpaceOnUse">
<stop stop-color="#42E8E0"/>
<stop offset="0.1" stop-color="#3CCACE"/>
<stop offset="0.34" stop-color="#2F87A5"/>
<stop offset="0.56" stop-color="#255385"/>
<stop offset="0.75" stop-color="#1E2D6E"/>
<stop offset="0.91" stop-color="#1A1660"/>
<stop offset="1" stop-color="#180D5B"/>
</linearGradient>
<linearGradient id="paint22_linear_2142_47786" x1="401.133" y1="398.719" x2="566.952" y2="290.389" gradientUnits="userSpaceOnUse">
<stop stop-color="#42E8E0"/>
<stop offset="0.1" stop-color="#3CCACE"/>
<stop offset="0.34" stop-color="#2F87A5"/>
<stop offset="0.56" stop-color="#255385"/>
<stop offset="0.75" stop-color="#1E2D6E"/>
<stop offset="0.91" stop-color="#1A1660"/>
<stop offset="1" stop-color="#180D5B"/>
</linearGradient>
<linearGradient id="paint23_linear_2142_47786" x1="193.709" y1="224.646" x2="391.747" y2="224.646" gradientUnits="userSpaceOnUse">
<stop stop-color="#42E8E0"/>
<stop offset="0.1" stop-color="#3CCACE"/>
<stop offset="0.34" stop-color="#2F87A5"/>
<stop offset="0.56" stop-color="#255385"/>
<stop offset="0.75" stop-color="#1E2D6E"/>
<stop offset="0.91" stop-color="#1A1660"/>
<stop offset="1" stop-color="#180D5B"/>
</linearGradient>
<linearGradient id="paint24_linear_2142_47786" x1="336.496" y1="224.646" x2="435.515" y2="224.646" gradientUnits="userSpaceOnUse">
<stop stop-color="#2B237C"/>
<stop offset="1" stop-color="#180D5B"/>
</linearGradient>
<linearGradient id="paint25_linear_2142_47786" x1="237.476" y1="202.761" x2="435.532" y2="202.761" gradientUnits="userSpaceOnUse">
<stop stop-color="#42E8E0"/>
<stop offset="0.1" stop-color="#3CCACE"/>
<stop offset="0.34" stop-color="#2F87A5"/>
<stop offset="0.56" stop-color="#255385"/>
<stop offset="0.75" stop-color="#1E2D6E"/>
<stop offset="0.91" stop-color="#1A1660"/>
<stop offset="1" stop-color="#180D5B"/>
</linearGradient>
<linearGradient id="paint26_linear_2142_47786" x1="237.477" y1="202.761" x2="338.56" y2="202.761" gradientUnits="userSpaceOnUse">
<stop stop-color="#42E8E0"/>
<stop offset="0.1" stop-color="#3CCACE"/>
<stop offset="0.34" stop-color="#2F87A5"/>
<stop offset="0.56" stop-color="#255385"/>
<stop offset="0.75" stop-color="#1E2D6E"/>
<stop offset="0.91" stop-color="#1A1660"/>
<stop offset="1" stop-color="#180D5B"/>
</linearGradient>
<linearGradient id="paint27_linear_2142_47786" x1="264.416" y1="260.426" x2="430.235" y2="152.097" gradientUnits="userSpaceOnUse">
<stop stop-color="#42E8E0"/>
<stop offset="0.1" stop-color="#3CCACE"/>
<stop offset="0.34" stop-color="#2F87A5"/>
<stop offset="0.56" stop-color="#255385"/>
<stop offset="0.75" stop-color="#1E2D6E"/>
<stop offset="0.91" stop-color="#1A1660"/>
<stop offset="1" stop-color="#180D5B"/>
</linearGradient>
<linearGradient id="paint28_linear_2142_47786" x1="56.9905" y1="303.729" x2="255.01" y2="303.729" gradientUnits="userSpaceOnUse">
<stop stop-color="#42E8E0"/>
<stop offset="0.1" stop-color="#3CCACE"/>
<stop offset="0.34" stop-color="#2F87A5"/>
<stop offset="0.56" stop-color="#255385"/>
<stop offset="0.75" stop-color="#1E2D6E"/>
<stop offset="0.91" stop-color="#1A1660"/>
<stop offset="1" stop-color="#180D5B"/>
</linearGradient>
<linearGradient id="paint29_linear_2142_47786" x1="199.777" y1="303.729" x2="298.796" y2="303.729" gradientUnits="userSpaceOnUse">
<stop stop-color="#2B237C"/>
<stop offset="1" stop-color="#180D5B"/>
</linearGradient>
<linearGradient id="paint30_linear_2142_47786" x1="100.758" y1="281.845" x2="298.813" y2="281.845" gradientUnits="userSpaceOnUse">
<stop stop-color="#42E8E0"/>
<stop offset="0.1" stop-color="#3CCACE"/>
<stop offset="0.34" stop-color="#2F87A5"/>
<stop offset="0.56" stop-color="#255385"/>
<stop offset="0.75" stop-color="#1E2D6E"/>
<stop offset="0.91" stop-color="#1A1660"/>
<stop offset="1" stop-color="#180D5B"/>
</linearGradient>
<linearGradient id="paint31_linear_2142_47786" x1="100.758" y1="281.844" x2="201.841" y2="281.844" gradientUnits="userSpaceOnUse">
<stop stop-color="#42E8E0"/>
<stop offset="0.1" stop-color="#3CCACE"/>
<stop offset="0.34" stop-color="#2F87A5"/>
<stop offset="0.56" stop-color="#255385"/>
<stop offset="0.75" stop-color="#1E2D6E"/>
<stop offset="0.91" stop-color="#1A1660"/>
<stop offset="1" stop-color="#180D5B"/>
</linearGradient>
<linearGradient id="paint32_linear_2142_47786" x1="127.692" y1="339.492" x2="293.511" y2="231.18" gradientUnits="userSpaceOnUse">
<stop stop-color="#42E8E0"/>
<stop offset="0.1" stop-color="#3CCACE"/>
<stop offset="0.34" stop-color="#2F87A5"/>
<stop offset="0.56" stop-color="#255385"/>
<stop offset="0.75" stop-color="#1E2D6E"/>
<stop offset="0.91" stop-color="#1A1660"/>
<stop offset="1" stop-color="#180D5B"/>
</linearGradient>
<linearGradient id="paint33_linear_2142_47786" x1="330.432" y1="303.065" x2="528.47" y2="303.065" gradientUnits="userSpaceOnUse">
<stop stop-color="#42E8E0"/>
<stop offset="0.1" stop-color="#3CCACE"/>
<stop offset="0.34" stop-color="#2F87A5"/>
<stop offset="0.56" stop-color="#255385"/>
<stop offset="0.75" stop-color="#1E2D6E"/>
<stop offset="0.91" stop-color="#1A1660"/>
<stop offset="1" stop-color="#180D5B"/>
</linearGradient>
<linearGradient id="paint34_linear_2142_47786" x1="473.219" y1="303.065" x2="572.238" y2="303.065" gradientUnits="userSpaceOnUse">
<stop stop-color="#2B237C"/>
<stop offset="1" stop-color="#180D5B"/>
</linearGradient>
<linearGradient id="paint35_linear_2142_47786" x1="374.198" y1="281.18" x2="572.254" y2="281.18" gradientUnits="userSpaceOnUse">
<stop stop-color="#42E8E0"/>
<stop offset="0.1" stop-color="#3CCACE"/>
<stop offset="0.34" stop-color="#2F87A5"/>
<stop offset="0.56" stop-color="#255385"/>
<stop offset="0.75" stop-color="#1E2D6E"/>
<stop offset="0.91" stop-color="#1A1660"/>
<stop offset="1" stop-color="#180D5B"/>
</linearGradient>
<linearGradient id="paint36_linear_2142_47786" x1="374.197" y1="281.18" x2="475.28" y2="281.18" gradientUnits="userSpaceOnUse">
<stop stop-color="#42E8E0"/>
<stop offset="0.1" stop-color="#3CCACE"/>
<stop offset="0.34" stop-color="#2F87A5"/>
<stop offset="0.56" stop-color="#255385"/>
<stop offset="0.75" stop-color="#1E2D6E"/>
<stop offset="0.91" stop-color="#1A1660"/>
<stop offset="1" stop-color="#180D5B"/>
</linearGradient>
<linearGradient id="paint37_linear_2142_47786" x1="401.133" y1="338.827" x2="566.952" y2="230.498" gradientUnits="userSpaceOnUse">
<stop stop-color="#42E8E0"/>
<stop offset="0.1" stop-color="#3CCACE"/>
<stop offset="0.34" stop-color="#2F87A5"/>
<stop offset="0.56" stop-color="#255385"/>
<stop offset="0.75" stop-color="#1E2D6E"/>
<stop offset="0.91" stop-color="#1A1660"/>
<stop offset="1" stop-color="#180D5B"/>
</linearGradient>
<linearGradient id="paint38_linear_2142_47786" x1="193.709" y1="442.021" x2="391.747" y2="442.021" gradientUnits="userSpaceOnUse">
<stop stop-color="#42E8E0"/>
<stop offset="0.1" stop-color="#3CCACE"/>
<stop offset="0.34" stop-color="#2F87A5"/>
<stop offset="0.56" stop-color="#255385"/>
<stop offset="0.75" stop-color="#1E2D6E"/>
<stop offset="0.91" stop-color="#1A1660"/>
<stop offset="1" stop-color="#180D5B"/>
</linearGradient>
<linearGradient id="paint39_linear_2142_47786" x1="336.496" y1="442.021" x2="435.515" y2="442.021" gradientUnits="userSpaceOnUse">
<stop stop-color="#2B237C"/>
<stop offset="1" stop-color="#180D5B"/>
</linearGradient>
<linearGradient id="paint40_linear_2142_47786" x1="237.476" y1="420.137" x2="435.532" y2="420.137" gradientUnits="userSpaceOnUse">
<stop stop-color="#42E8E0"/>
<stop offset="0.1" stop-color="#3CCACE"/>
<stop offset="0.34" stop-color="#2F87A5"/>
<stop offset="0.56" stop-color="#255385"/>
<stop offset="0.75" stop-color="#1E2D6E"/>
<stop offset="0.91" stop-color="#1A1660"/>
<stop offset="1" stop-color="#180D5B"/>
</linearGradient>
<linearGradient id="paint41_linear_2142_47786" x1="237.477" y1="420.155" x2="338.56" y2="420.155" gradientUnits="userSpaceOnUse">
<stop stop-color="#42E8E0"/>
<stop offset="0.1" stop-color="#3CCACE"/>
<stop offset="0.34" stop-color="#2F87A5"/>
<stop offset="0.56" stop-color="#255385"/>
<stop offset="0.75" stop-color="#1E2D6E"/>
<stop offset="0.91" stop-color="#1A1660"/>
<stop offset="1" stop-color="#180D5B"/>
</linearGradient>
<linearGradient id="paint42_linear_2142_47786" x1="264.416" y1="477.802" x2="430.235" y2="369.472" gradientUnits="userSpaceOnUse">
<stop stop-color="#42E8E0"/>
<stop offset="0.1" stop-color="#3CCACE"/>
<stop offset="0.34" stop-color="#2F87A5"/>
<stop offset="0.56" stop-color="#255385"/>
<stop offset="0.75" stop-color="#1E2D6E"/>
<stop offset="0.91" stop-color="#1A1660"/>
<stop offset="1" stop-color="#180D5B"/>
</linearGradient>
<linearGradient id="paint43_linear_2142_47786" x1="193.709" y1="382.148" x2="391.747" y2="382.148" gradientUnits="userSpaceOnUse">
<stop stop-color="#42E8E0"/>
<stop offset="0.1" stop-color="#3CCACE"/>
<stop offset="0.34" stop-color="#2F87A5"/>
<stop offset="0.56" stop-color="#255385"/>
<stop offset="0.75" stop-color="#1E2D6E"/>
<stop offset="0.91" stop-color="#1A1660"/>
<stop offset="1" stop-color="#180D5B"/>
</linearGradient>
<linearGradient id="paint44_linear_2142_47786" x1="336.496" y1="382.148" x2="435.515" y2="382.148" gradientUnits="userSpaceOnUse">
<stop stop-color="#2B237C"/>
<stop offset="1" stop-color="#180D5B"/>
</linearGradient>
<linearGradient id="paint45_linear_2142_47786" x1="237.476" y1="360.263" x2="435.532" y2="360.263" gradientUnits="userSpaceOnUse">
<stop stop-color="#42E8E0"/>
<stop offset="0.1" stop-color="#3CCACE"/>
<stop offset="0.34" stop-color="#2F87A5"/>
<stop offset="0.56" stop-color="#255385"/>
<stop offset="0.75" stop-color="#1E2D6E"/>
<stop offset="0.91" stop-color="#1A1660"/>
<stop offset="1" stop-color="#180D5B"/>
</linearGradient>
<linearGradient id="paint46_linear_2142_47786" x1="237.477" y1="360.263" x2="338.56" y2="360.263" gradientUnits="userSpaceOnUse">
<stop stop-color="#42E8E0"/>
<stop offset="0.1" stop-color="#3CCACE"/>
<stop offset="0.34" stop-color="#2F87A5"/>
<stop offset="0.56" stop-color="#255385"/>
<stop offset="0.75" stop-color="#1E2D6E"/>
<stop offset="0.91" stop-color="#1A1660"/>
<stop offset="1" stop-color="#180D5B"/>
</linearGradient>
<linearGradient id="paint47_linear_2142_47786" x1="264.416" y1="417.91" x2="430.235" y2="309.581" gradientUnits="userSpaceOnUse">
<stop stop-color="#42E8E0"/>
<stop offset="0.1" stop-color="#3CCACE"/>
<stop offset="0.34" stop-color="#2F87A5"/>
<stop offset="0.56" stop-color="#255385"/>
<stop offset="0.75" stop-color="#1E2D6E"/>
<stop offset="0.91" stop-color="#1A1660"/>
<stop offset="1" stop-color="#180D5B"/>
</linearGradient>
<linearGradient id="paint48_linear_2142_47786" x1="199.777" y1="327.93" x2="199.777" y2="45.0439" gradientUnits="userSpaceOnUse">
<stop offset="0.01" stop-color="#25BFEC"/>
<stop offset="0.05" stop-color="#24B4E1"/>
<stop offset="0.22" stop-color="#1F83B0"/>
<stop offset="0.39" stop-color="#1B5A86"/>
<stop offset="0.56" stop-color="#173A66"/>
<stop offset="0.72" stop-color="#152350"/>
<stop offset="0.87" stop-color="#131642"/>
<stop offset="1" stop-color="#13113D"/>
</linearGradient>
<radialGradient id="paint49_radial_2142_47786" cx="0" cy="0" r="1" gradientUnits="userSpaceOnUse" gradientTransform="translate(437.246 199.916) rotate(29.898) scale(71.9802 62.2082)">
<stop stop-color="#42E8E0"/>
<stop offset="0.02" stop-color="#3FD8D7"/>
<stop offset="0.1" stop-color="#36A9BA"/>
<stop offset="0.18" stop-color="#2E7FA0"/>
<stop offset="0.26" stop-color="#275C8B"/>
<stop offset="0.35" stop-color="#223F79"/>
<stop offset="0.44" stop-color="#1D296C"/>
<stop offset="0.54" stop-color="#1A1962"/>
<stop offset="0.66" stop-color="#19105D"/>
<stop offset="0.82" stop-color="#180D5B"/>
</radialGradient>
<radialGradient id="paint50_radial_2142_47786" cx="0" cy="0" r="1" gradientUnits="userSpaceOnUse" gradientTransform="translate(532.559 292.221) rotate(29.898) scale(71.9802 62.2082)">
<stop stop-color="#42E8E0"/>
<stop offset="0.02" stop-color="#3FD8D7"/>
<stop offset="0.1" stop-color="#36A9BA"/>
<stop offset="0.18" stop-color="#2E7FA0"/>
<stop offset="0.26" stop-color="#275C8B"/>
<stop offset="0.35" stop-color="#223F79"/>
<stop offset="0.44" stop-color="#1D296C"/>
<stop offset="0.54" stop-color="#1A1962"/>
<stop offset="0.66" stop-color="#19105D"/>
<stop offset="0.82" stop-color="#180D5B"/>
</radialGradient>
<radialGradient id="paint51_radial_2142_47786" cx="0" cy="0" r="1" gradientUnits="userSpaceOnUse" gradientTransform="translate(356.782 246.001) rotate(29.898) scale(55.3403 47.8273)">
<stop stop-color="#42E8E0"/>
<stop offset="0.02" stop-color="#3FD8D7"/>
<stop offset="0.1" stop-color="#36A9BA"/>
<stop offset="0.18" stop-color="#2E7FA0"/>
<stop offset="0.26" stop-color="#275C8B"/>
<stop offset="0.35" stop-color="#223F79"/>
<stop offset="0.44" stop-color="#1D296C"/>
<stop offset="0.54" stop-color="#1A1962"/>
<stop offset="0.66" stop-color="#19105D"/>
<stop offset="0.82" stop-color="#180D5B"/>
</radialGradient>
<radialGradient id="paint52_radial_2142_47786" cx="0" cy="0" r="1" gradientUnits="userSpaceOnUse" gradientTransform="translate(446.695 201.72) scale(12.5972 12.603)">
<stop stop-color="#42E8E0"/>
<stop offset="0.02" stop-color="#3FD8D7"/>
<stop offset="0.1" stop-color="#36A9BA"/>
<stop offset="0.18" stop-color="#2E7FA0"/>
<stop offset="0.26" stop-color="#275C8B"/>
<stop offset="0.35" stop-color="#223F79"/>
<stop offset="0.44" stop-color="#1D296C"/>
<stop offset="0.54" stop-color="#1A1962"/>
<stop offset="0.66" stop-color="#19105D"/>
<stop offset="0.82" stop-color="#180D5B"/>
</radialGradient>
<radialGradient id="paint53_radial_2142_47786" cx="0" cy="0" r="1" gradientUnits="userSpaceOnUse" gradientTransform="translate(365.837 248.524) scale(12.5972 12.603)">
<stop stop-color="#42E8E0"/>
<stop offset="0.02" stop-color="#3FD8D7"/>
<stop offset="0.1" stop-color="#36A9BA"/>
<stop offset="0.18" stop-color="#2E7FA0"/>
<stop offset="0.26" stop-color="#275C8B"/>
<stop offset="0.35" stop-color="#223F79"/>
<stop offset="0.44" stop-color="#1D296C"/>
<stop offset="0.54" stop-color="#1A1962"/>
<stop offset="0.66" stop-color="#19105D"/>
<stop offset="0.82" stop-color="#180D5B"/>
</radialGradient>
<radialGradient id="paint54_radial_2142_47786" cx="0" cy="0" r="1" gradientUnits="userSpaceOnUse" gradientTransform="translate(532.883 297.015) scale(12.5972 12.603)">
<stop stop-color="#42E8E0"/>
<stop offset="0.02" stop-color="#3FD8D7"/>
<stop offset="0.1" stop-color="#36A9BA"/>
<stop offset="0.18" stop-color="#2E7FA0"/>
<stop offset="0.26" stop-color="#275C8B"/>
<stop offset="0.35" stop-color="#223F79"/>
<stop offset="0.44" stop-color="#1D296C"/>
<stop offset="0.54" stop-color="#1A1962"/>
<stop offset="0.66" stop-color="#19105D"/>
<stop offset="0.82" stop-color="#180D5B"/>
</radialGradient>
<radialGradient id="paint55_radial_2142_47786" cx="0" cy="0" r="1" gradientUnits="userSpaceOnUse" gradientTransform="translate(556.231 283.245) scale(12.5972 12.603)">
<stop stop-color="#42E8E0"/>
<stop offset="0.02" stop-color="#3FD8D7"/>
<stop offset="0.1" stop-color="#36A9BA"/>
<stop offset="0.18" stop-color="#2E7FA0"/>
<stop offset="0.26" stop-color="#275C8B"/>
<stop offset="0.35" stop-color="#223F79"/>
<stop offset="0.44" stop-color="#1D296C"/>
<stop offset="0.54" stop-color="#1A1962"/>
<stop offset="0.66" stop-color="#19105D"/>
<stop offset="0.82" stop-color="#180D5B"/>
</radialGradient>
<radialGradient id="paint56_radial_2142_47786" cx="0" cy="0" r="1" gradientUnits="userSpaceOnUse" gradientTransform="translate(579.558 269.708) scale(12.5972 12.603)">
<stop stop-color="#42E8E0"/>
<stop offset="0.02" stop-color="#3FD8D7"/>
<stop offset="0.1" stop-color="#36A9BA"/>
<stop offset="0.18" stop-color="#2E7FA0"/>
<stop offset="0.26" stop-color="#275C8B"/>
<stop offset="0.35" stop-color="#223F79"/>
<stop offset="0.44" stop-color="#1D296C"/>
<stop offset="0.54" stop-color="#1A1962"/>
<stop offset="0.66" stop-color="#19105D"/>
<stop offset="0.82" stop-color="#180D5B"/>
</radialGradient>
<clipPath id="clip0_2142_47786">
<rect width="672" height="673" rx="24" fill="white"/>
</clipPath>
</defs>
</svg>
